<svg width="17" height="39" viewBox="0 0 17 39" fill="none" xmlns="http://www.w3.org/2000/svg">
<path d="M0.456846 3.41355C0.310915 3.23201 0.196829 3.01845 0.121103 2.78506C0.0453777 2.55168 0.00949287 2.30305 0.015501 2.05337C0.0215092 1.80368 0.0692921 1.55784 0.156118 1.32986C0.242947 1.10189 0.367119 0.896248 0.521547 0.724689C0.675976 0.55313 0.857637 0.41901 1.05616 0.329985C1.25467 0.240961 1.46616 0.198776 1.67855 0.205839C1.89094 0.212902 2.10006 0.269075 2.29398 0.371151C2.4879 0.473226 2.66282 0.619205 2.80875 0.800753L16.5579 17.9152C16.8418 18.2682 17 18.7357 17 19.2216C17 19.7075 16.8418 20.1749 16.5579 20.528L2.80875 37.6443C2.66378 37.8298 2.4889 37.9796 2.29427 38.085C2.09964 38.1904 1.88913 38.2493 1.67498 38.2582C1.46082 38.2672 1.24729 38.226 1.04679 38.1371C0.846281 38.0482 0.662798 37.9134 0.506994 37.7404C0.351192 37.5675 0.226175 37.3598 0.139206 37.1296C0.0522366 36.8994 0.00504875 36.6511 0.000383377 36.3992C-0.004282 36.1474 0.0336666 35.8969 0.112026 35.6625C0.190388 35.428 0.307596 35.2142 0.456846 35.0334L13.1578 19.2216L0.456846 3.41355Z" fill="black"/>
</svg>
