<svg width="20" height="39" viewBox="0 0 20 39" fill="none" xmlns="http://www.w3.org/2000/svg">
<path d="M19.4625 3.41355C19.6342 3.23201 19.7684 3.01845 19.8575 2.78506C19.9466 2.55168 19.9888 2.30305 19.9818 2.05337C19.9747 1.80368 19.9185 1.55784 19.8163 1.32986C19.7142 1.10189 19.5681 0.896248 19.3864 0.724689C19.2047 0.55313 18.991 0.41901 18.7575 0.329985C18.5239 0.240961 18.2751 0.198776 18.0252 0.205839C17.7754 0.212902 17.5293 0.269075 17.3012 0.371151C17.0731 0.473226 16.8673 0.619205 16.6956 0.800753L0.520168 17.9152C0.186124 18.2682 0 18.7357 0 19.2216C0 19.7075 0.186124 20.1749 0.520168 20.528L16.6956 37.6443C16.8661 37.8298 17.0719 37.9796 17.3009 38.085C17.5298 38.1904 17.7775 38.2493 18.0294 38.2582C18.2814 38.2672 18.5326 38.226 18.7685 38.1371C19.0044 38.0482 19.2202 37.9134 19.4035 37.7404C19.5868 37.5675 19.7339 37.3598 19.8362 37.1296C19.9385 36.8994 19.9941 36.6511 19.9995 36.3992C20.005 36.1474 19.9604 35.8969 19.8682 35.6625C19.776 35.428 19.6381 35.2142 19.4625 35.0334L4.52025 19.2216L19.4625 3.41355Z" fill="black"/>
</svg>
