<svg width="31" height="29" viewBox="0 0 31 29" fill="none" xmlns="http://www.w3.org/2000/svg">
<g clip-path="url(#clip0_787_11375)">
<path d="M8.54534 25.375C7.95031 25.375 7.45388 25.1889 7.05605 24.8167C6.65822 24.4446 6.45887 23.9802 6.45801 23.4235V5.57646C6.45801 5.02062 6.65735 4.55663 7.05605 4.18446C7.45474 3.81229 7.95117 3.62581 8.54534 3.625H22.4553C23.0495 3.625 23.5459 3.81149 23.9446 4.18446C24.3433 4.55743 24.5422 5.02183 24.5413 5.57767V23.4235C24.5413 23.9794 24.3424 24.4438 23.9446 24.8167C23.5468 25.1897 23.0499 25.3758 22.454 25.375H8.54534ZM8.54534 24.1667H22.4553C22.6534 24.1667 22.8355 24.0893 23.0017 23.9347C23.1679 23.78 23.2505 23.6092 23.2497 23.4223V5.57767C23.2497 5.39158 23.167 5.22081 23.0017 5.06533C22.8363 4.90986 22.6538 4.83253 22.454 4.83333H20.6663V12.2235L18.083 10.782L15.4997 12.2235V4.83333H8.54534C8.34642 4.83333 8.16387 4.91067 7.99767 5.06533C7.83148 5.22 7.74881 5.39037 7.74967 5.57646V23.4235C7.74967 23.6088 7.83234 23.7792 7.99767 23.9347C8.16301 24.0901 8.34513 24.1675 8.54405 24.1667" fill="black"/>
</g>
<defs>
<clipPath id="clip0_787_11375">
<rect width="31" height="29" fill="white"/>
</clipPath>
</defs>
</svg>
