<svg width="30" height="20" viewBox="0 0 30 20" fill="none" xmlns="http://www.w3.org/2000/svg">
<path d="M28.125 0H1.875C1.37772 0 0.900805 0.175595 0.549175 0.488155C0.197544 0.800716 0 1.22464 0 1.66667V18.3333C0 18.7754 0.197544 19.1993 0.549175 19.5118C0.900805 19.8244 1.37772 20 1.875 20H28.125C28.6223 20 29.0992 19.8244 29.4508 19.5118C29.8025 19.1993 30 18.7754 30 18.3333V1.66667C30 1.22464 29.8025 0.800716 29.4508 0.488155C29.0992 0.175595 28.6223 0 28.125 0ZM26.6812 18.3333H3.43125L9.99375 12.3L8.64375 11.1417L1.875 17.3667V2.93333L13.5281 13.2417C13.8794 13.5521 14.3547 13.7263 14.85 13.7263C15.3453 13.7263 15.8206 13.5521 16.1719 13.2417L28.125 2.675V17.2583L21.225 11.125L19.9031 12.3L26.6812 18.3333ZM3.10312 1.66667H26.6062L14.85 12.0583L3.10312 1.66667Z" fill="#FFD914"/>
</svg>
