<svg width="30" height="22" viewBox="0 0 30 22" fill="none" xmlns="http://www.w3.org/2000/svg">
<path d="M28.125 0.691406H1.875C1.37772 0.691406 0.900805 0.870655 0.549175 1.18972C0.197544 1.50879 0 1.94153 0 2.39276V19.4063C0 19.8575 0.197544 20.2903 0.549175 20.6093C0.900805 20.9284 1.37772 21.1076 1.875 21.1076H28.125C28.6223 21.1076 29.0992 20.9284 29.4508 20.6093C29.8025 20.2903 30 19.8575 30 19.4063V2.39276C30 1.94153 29.8025 1.50879 29.4508 1.18972C29.0992 0.870655 28.6223 0.691406 28.125 0.691406ZM26.6812 19.4063H3.43125L9.99375 13.2474L8.64375 12.0649L1.875 18.4195V3.68579L13.5281 14.2086C13.8794 14.5255 14.3547 14.7034 14.85 14.7034C15.3453 14.7034 15.8206 14.5255 16.1719 14.2086L28.125 3.42208V18.3089L21.225 12.0479L19.9031 13.2474L26.6812 19.4063ZM3.10312 2.39276H26.6062L14.85 13.0007L3.10312 2.39276Z" fill="#FFD914"/>
</svg>
