<svg width="27" height="26" viewBox="0 0 27 26" fill="none" xmlns="http://www.w3.org/2000/svg">
<g clip-path="url(#clip0_871_2302)">
<path d="M17.25 18.7777C17.25 18.9692 17.171 19.1529 17.0303 19.2884C16.8897 19.4238 16.6989 19.4999 16.5 19.4999H6C5.835 19.4999 5.6775 19.6443 5.5425 19.7382L3 21.6666V10.111C3 9.91946 3.07902 9.73576 3.21967 9.60031C3.36032 9.46487 3.55109 9.38878 3.75 9.38878H6.645V7.94434H3.75C3.15326 7.94434 2.58097 8.17261 2.15901 8.57894C1.73705 8.98527 1.5 9.53637 1.5 10.111V23.111C1.50112 23.2451 1.541 23.3763 1.61518 23.4898C1.68936 23.6034 1.79491 23.6948 1.92 23.7538C2.04051 23.8066 2.17338 23.8277 2.30511 23.815C2.43683 23.8023 2.56273 23.7563 2.67 23.6816L6.5325 20.9443H16.6125C16.8968 20.9524 17.1797 20.9042 17.4438 20.8027C17.708 20.7013 17.9476 20.5486 18.148 20.3543C18.3484 20.16 18.5052 19.9281 18.6088 19.6731C18.7123 19.418 18.7604 19.1452 18.75 18.8716V18.0554H17.25V18.7777Z" fill="black"/>
<path d="M24 9.54756V16.5676L21.375 14.5959C21.2441 14.4981 21.0832 14.4447 20.9175 14.4442H10.5C10.3011 14.4442 10.1103 14.3681 9.96967 14.2327C9.82902 14.0973 9.75 13.9136 9.75 13.722V5.05534C9.75 4.86379 9.82902 4.68009 9.96967 4.54465C10.1103 4.40921 10.3011 4.33312 10.5 4.33312H16.875C16.8771 3.84472 16.9477 3.35883 17.085 2.88867H10.5C9.90326 2.88867 9.33097 3.11695 8.90901 3.52327C8.48705 3.9296 8.25 4.4807 8.25 5.05534V13.722C8.25 14.2966 8.48705 14.8477 8.90901 15.2541C9.33097 15.6604 9.90326 15.8887 10.5 15.8887H20.6625L24.2475 18.5681C24.3541 18.644 24.4796 18.6913 24.6114 18.7053C24.7431 18.7192 24.8763 18.6993 24.9975 18.6476C25.1251 18.589 25.233 18.4969 25.3086 18.3819C25.3843 18.2669 25.4246 18.1337 25.425 17.9976V8.93367C24.9819 9.20109 24.5023 9.40771 24 9.54756Z" fill="black"/>
<path d="M22.5 7.94488C24.5711 7.94488 26.25 6.32813 26.25 4.33377C26.25 2.33941 24.5711 0.722656 22.5 0.722656C20.4289 0.722656 18.75 2.33941 18.75 4.33377C18.75 6.32813 20.4289 7.94488 22.5 7.94488Z" fill="black"/>
</g>
<defs>
<clipPath id="clip0_871_2302">
<rect width="27" height="26" fill="white"/>
</clipPath>
</defs>
</svg>
