<svg width="123" height="84" viewBox="0 0 123 84" fill="none" xmlns="http://www.w3.org/2000/svg">
<path d="M122.619 15.8973C122.619 15.2058 122.059 14.6465 121.366 14.6465H117.334C117.193 14.3396 117.018 14.0522 116.808 13.7919C116.166 13.0034 115.247 12.5489 114.297 12.5489C112.986 12.5489 111.841 13.3996 111.265 14.6426H77.1909L77.1948 10.0162C77.1948 10.0123 77.1948 10.0123 77.1948 10.0123V6.57457C77.2337 4.8654 76.6031 3.2417 75.4237 1.99867C74.2365 0.755639 72.6367 0.0447824 70.9124 0.00205301C69.1802 -0.0406754 67.5571 0.584723 66.3115 1.76948C66.0157 2.04917 65.751 2.35604 65.5175 2.67845C64.3809 1.10136 62.5436 0.0525518 60.4534 0.00205301C58.729 -0.0406754 57.0981 0.584723 55.8486 1.76948C55.5567 2.04917 55.292 2.35215 55.0585 2.67456C54.8911 2.4415 54.7043 2.21231 54.5019 1.99867C53.3147 0.755639 51.711 0.0447824 49.9905 0.00205301C48.274 -0.0406754 46.6353 0.584723 45.3897 1.76948C45.0627 2.08024 44.7747 2.42207 44.5217 2.78333C43.4162 1.31889 41.6958 0.351655 39.7418 0.301157C38.103 0.262312 36.5344 0.864404 35.3355 2.00255C34.1016 3.17566 33.3971 4.76052 33.3543 6.47746L33.2881 9.11501C33.2881 9.11889 33.2881 9.13831 33.2881 9.14608L33.2803 10.0123C33.2803 10.0123 33.2803 10.0123 33.2803 10.0162V10.1366L33.2531 14.6426H9.92571C9.88678 14.6426 9.84786 14.6504 9.80893 14.6543C9.7739 14.6581 9.73887 14.6581 9.70384 14.6659C9.64935 14.6776 9.59874 14.6931 9.55203 14.7086C9.52479 14.7164 9.49365 14.7203 9.4664 14.7319C9.41191 14.7553 9.35741 14.7824 9.30292 14.8135C9.28735 14.8252 9.27178 14.8291 9.25621 14.8368L9.23285 14.8524C9.22896 14.8562 9.22507 14.8562 9.22118 14.8601L0.579973 20.3062C0.572188 20.31 0.568296 20.3139 0.560511 20.3217C0.521586 20.345 0.486554 20.3761 0.451522 20.4071C0.420383 20.4305 0.389244 20.4538 0.365889 20.481C0.338643 20.5043 0.315287 20.5353 0.291933 20.5625C0.260793 20.6014 0.229654 20.6363 0.206299 20.6752C0.202407 20.6829 0.194622 20.6868 0.190729 20.6946C0.17516 20.7179 0.167375 20.7451 0.151805 20.7684C0.132343 20.8072 0.108988 20.85 0.0934184 20.8927C0.0778487 20.9277 0.0661716 20.9665 0.0544941 21.0054C0.0428175 21.0442 0.03114 21.083 0.0233546 21.1219C0.0155702 21.1607 0.0116771 21.2035 0.00778487 21.2423C0.00389169 21.285 0 21.3239 0 21.3627C0 21.4016 0.00389169 21.4404 0.00778487 21.4793C0.0116771 21.522 0.0155702 21.5608 0.0233546 21.6036C0.03114 21.6424 0.0428175 21.6813 0.0544941 21.7201C0.0661716 21.7589 0.0778487 21.7939 0.0934184 21.8327C0.108988 21.8755 0.132343 21.9143 0.151805 21.957C0.167375 21.9804 0.17516 22.0075 0.190729 22.0309C0.194622 22.0386 0.202407 22.0464 0.210191 22.058C0.221869 22.0736 0.233547 22.0891 0.241331 22.1008C0.280256 22.1552 0.323073 22.2018 0.365889 22.2445C0.373674 22.2523 0.381459 22.26 0.389243 22.2678C0.443738 22.3222 0.502124 22.3649 0.564403 22.4076C0.572188 22.4115 0.576081 22.4154 0.579973 22.4193L9.25621 27.8886C9.31459 27.9236 9.37298 27.9508 9.43137 27.978C9.43915 27.9819 9.45083 27.9857 9.45862 27.9896C9.52089 28.0129 9.58317 28.0324 9.64934 28.0479C9.66491 28.0518 9.68048 28.0557 9.69605 28.0557C9.77001 28.0712 9.84786 28.079 9.92571 28.079C9.9296 28.079 9.93349 28.079 9.93738 28.079H33.1791L33.1713 29.5123L32.9533 41.3483C32.8989 43.5547 33.7357 45.8659 35.1604 47.645C34.81 47.8742 34.4792 48.1422 34.1756 48.4491C33.0584 49.5756 32.4512 51.0672 32.459 52.6521C32.4746 55.4877 34.5025 57.8612 37.1805 58.4244V84.0696C37.1805 84.7611 37.741 85.3204 38.43 85.3204H70.7139C71.4067 85.3204 71.9672 84.7611 71.9672 84.0696V58.3001C74.8359 57.8612 77.0313 55.379 77.0118 52.3996C77.0001 50.4263 76.0153 48.6744 74.5129 47.6023L77.4594 44.4636C78.596 43.3876 87.3579 34.9273 87.7861 29.7182C87.79 29.6871 87.79 29.6522 87.79 29.6172V28.079H111.261C111.401 28.3858 111.577 28.6733 111.787 28.9335C112.433 29.7221 113.348 30.1766 114.297 30.1766H114.301C115.613 30.1766 116.757 29.3259 117.334 28.079H121.37C121.701 28.079 122.02 27.9469 122.254 27.7138C122.491 27.4808 122.623 27.1622 122.623 26.8282L122.619 15.8973ZM8.67234 24.5596L3.59661 21.3627L8.67234 18.1658V24.5596ZM33.2258 19.8517H14.5188C13.8259 19.8517 13.2654 20.411 13.2654 21.1025C13.2654 21.7939 13.8259 22.3533 14.5188 22.3533H33.2102L33.1908 25.5774H11.1791V17.1442H33.2414L33.2258 19.8517ZM69.4605 82.8188H39.6834V58.5448L69.4605 58.3778V82.8188ZM71.0875 55.8645L38.4222 56.051H38.4028C36.5188 56.051 34.9735 54.5205 34.9657 52.6366C34.958 51.7198 35.3122 50.8575 35.9583 50.2049C36.6045 49.5562 37.4647 49.191 38.3833 49.1871L71.0681 49.0007C72.9559 49.0007 74.4973 50.5312 74.5051 52.4151C74.5168 54.3069 72.9831 55.8568 71.0875 55.8645ZM85.2832 29.5628C84.929 33.222 78.2613 40.2606 75.7078 42.6768C75.6923 42.6923 75.6728 42.7117 75.6572 42.7273L72.0373 46.5807C71.722 46.5302 71.3989 46.4991 71.0681 46.4991L38.3716 46.6856C38.142 46.6856 37.9201 46.7011 37.6982 46.7283C36.2969 45.3609 35.4134 43.2944 35.4601 41.4027L35.6742 29.5434L35.787 10.1483V10.0589L35.7948 9.16939C35.7948 9.16939 35.7948 9.16551 35.7948 9.16162L35.861 6.53572C35.8882 5.4908 36.3125 4.52745 37.0599 3.8166C37.7761 3.13682 38.6986 2.77556 39.6756 2.80275C41.7308 2.85714 43.3578 4.6168 43.3033 6.72995C43.3033 6.7416 43.3033 6.75325 43.3033 6.76491L43.3072 9.97736V10.0007C43.3072 10.0007 43.3072 10.0007 43.3072 10.0046V10.1483C43.3072 10.8397 43.8677 11.3991 44.5606 11.3991C45.2534 11.3991 45.814 10.8397 45.814 10.1483V9.98901L45.8217 9.0179C45.8217 9.01401 45.8217 9.01013 45.8217 9.00624L45.8918 6.33373C45.919 5.28493 46.3511 4.30604 47.114 3.58353C47.8769 2.86102 48.8812 2.48034 49.9283 2.50365C50.9792 2.52696 51.9601 2.96202 52.6841 3.72337C53.4081 4.48473 53.7934 5.47915 53.7662 6.52795C53.7662 6.53961 53.7662 6.55126 53.7662 6.56291L53.7701 9.97736L53.7662 10.0007C53.7662 10.0007 53.7701 10.0007 53.7701 10.0046V10.0162C53.7701 10.0512 53.774 10.0822 53.7779 10.1172C53.7818 10.1638 53.7857 10.2143 53.7934 10.2609C53.8012 10.3037 53.8168 10.3425 53.8285 10.3852C53.8402 10.4202 53.8479 10.459 53.8635 10.494C53.883 10.5406 53.9102 10.5872 53.9375 10.6299C53.953 10.6571 53.9608 10.6804 53.9764 10.7038C54.0114 10.7543 54.0503 10.8009 54.0893 10.8436C54.1048 10.8591 54.1126 10.8747 54.1282 10.8902C54.1749 10.9368 54.2294 10.9796 54.2839 11.0184C54.2917 11.0262 54.2995 11.0378 54.3111 11.0417C54.3734 11.0844 54.4396 11.1194 54.5058 11.1505C54.5135 11.1544 54.5174 11.1582 54.5213 11.1582C54.677 11.2282 54.8444 11.2631 55.0196 11.2631C55.0235 11.2631 55.0235 11.2631 55.0235 11.2631C55.6112 11.2631 56.1017 10.8552 56.234 10.3075C56.2379 10.2959 56.2457 10.2881 56.2457 10.2726C56.2574 10.2182 56.2612 10.156 56.2651 10.0978C56.269 10.0706 56.2729 10.0512 56.2729 10.024V10.0162C56.2729 10.0162 56.2729 10.0162 56.2729 10.0123V9.98124L56.2846 9.0179C56.2846 9.01401 56.2846 9.01013 56.2846 9.00624L56.3547 6.33373C56.378 5.28493 56.814 4.30604 57.5769 3.58353C58.3398 2.86102 59.3441 2.47646 60.3872 2.49976C62.5592 2.55803 64.2836 4.36431 64.2291 6.53184C64.2291 6.53961 64.2291 6.55126 64.2291 6.56291V10.0007C64.2291 10.0007 64.2291 10.0046 64.2291 10.0084V10.0162C64.2291 10.0317 64.2329 10.0512 64.2368 10.0706C64.2368 10.1366 64.2407 10.1988 64.2524 10.2609C64.2602 10.2881 64.2719 10.3153 64.2797 10.3425C64.2913 10.393 64.3069 10.4474 64.3264 10.494C64.3419 10.529 64.3614 10.56 64.377 10.595C64.4003 10.6299 64.4159 10.6727 64.4392 10.7076C64.4665 10.7465 64.4976 10.7776 64.5288 10.8125C64.5482 10.8397 64.5677 10.8669 64.5911 10.8902C64.63 10.9291 64.6728 10.964 64.7156 10.9951C64.7351 11.0106 64.7545 11.03 64.774 11.0456C64.8246 11.0805 64.883 11.1077 64.9375 11.1349C64.9531 11.1427 64.9686 11.1544 64.9842 11.1621C65.0504 11.1893 65.1165 11.2087 65.1866 11.2243C65.1983 11.2282 65.2061 11.232 65.2177 11.2359C65.2917 11.2515 65.3695 11.2592 65.4513 11.2592C65.4552 11.2592 65.463 11.2631 65.4669 11.2631C65.4707 11.2631 65.4707 11.2631 65.4707 11.2631C65.4746 11.2631 65.4785 11.2631 65.4824 11.2631C66.078 11.2631 66.5723 10.8514 66.7008 10.2959C66.7008 10.2881 66.7046 10.2842 66.7085 10.2765C66.7202 10.2104 66.7241 10.1444 66.728 10.0784C66.7319 10.0589 66.7358 10.0434 66.7358 10.024V10.0201C66.7358 10.0162 66.7358 10.0162 66.7358 10.0123V9.95794L66.7475 9.0179C66.7475 9.01401 66.7475 9.01013 66.7475 9.00624L66.8136 6.33373C66.8409 5.28493 67.2768 4.30604 68.0398 3.58353C68.8027 2.86102 69.7952 2.47646 70.8501 2.49976C71.901 2.52696 72.8819 2.96202 73.6059 3.72337C74.3299 4.48473 74.7153 5.47915 74.688 6.52795C74.688 6.53961 74.688 6.55126 74.688 6.56291V10.0123L74.6725 26.8204C74.6725 26.8243 74.6725 26.8282 74.6725 26.8282C74.6725 26.8321 74.6725 26.8359 74.6725 26.8359L74.6647 34.803C74.6647 35.4944 75.2252 36.0538 75.918 36.0538C76.6109 36.0538 77.1714 35.4944 77.1714 34.8069L77.1792 28.079H85.2832V29.5628ZM86.5483 25.5774C86.5444 25.5774 86.5405 25.5774 86.5366 25.5774C86.5327 25.5774 86.5288 25.5774 86.5249 25.5774H77.1792L77.1831 22.3533H108.003C108.696 22.3533 109.257 21.7939 109.257 21.1025C109.257 20.411 108.696 19.8517 108.003 19.8517H77.187V17.1442H110.868V25.5774H86.5483ZM115.22 26.2572C115.22 26.3581 115.212 26.4591 115.2 26.5524C115.193 26.5679 115.193 26.5873 115.189 26.6068C115.076 27.2516 114.671 27.675 114.301 27.675V28.9258L114.297 27.675C114.033 27.675 113.83 27.4769 113.729 27.3565C113.503 27.0768 113.375 26.6767 113.375 26.2572V16.4722C113.375 16.3557 113.383 16.2508 113.402 16.1459C113.507 15.4855 113.92 15.0505 114.297 15.0505C114.562 15.0505 114.765 15.2525 114.866 15.369C115.025 15.571 115.134 15.8312 115.189 16.1187C115.189 16.1381 115.193 16.1537 115.197 16.1731C115.212 16.2702 115.22 16.3673 115.22 16.4683V26.2572ZM117.727 25.5813V17.1481H120.113V25.5813H117.727Z" fill="white"/>
</svg>
