<svg width="149" height="134" viewBox="0 0 149 134" fill="none" xmlns="http://www.w3.org/2000/svg">
<path d="M115.188 13.9456C114.856 13.3391 114.095 13.1177 113.488 13.4504L109.951 15.3871C109.68 15.1852 109.389 15.0172 109.079 14.8899C108.137 14.5067 107.113 14.5492 106.28 15.0053C105.13 15.6353 104.534 16.9311 104.626 18.298L74.7384 34.6625L72.52 30.6027C72.5181 30.5993 72.5181 30.5993 72.5181 30.5993L70.8671 27.584C70.0804 26.0661 68.7475 24.9448 67.1161 24.4209C65.4778 23.9008 63.7332 24.0455 62.2002 24.8362C60.6603 25.6306 59.537 26.9587 59.0134 28.5961C58.8883 28.9835 58.8035 29.3797 58.7535 29.7747C56.9992 28.9372 54.884 28.8996 53.0263 29.8592C51.4933 30.6499 50.3631 31.9817 49.8362 33.6209C49.7144 34.0065 49.6278 34.3993 49.5778 34.7943C49.319 34.6702 49.0451 34.5589 48.765 34.4688C47.1267 33.9486 45.3786 34.0953 43.849 34.8841C42.3229 35.671 41.1859 37.0066 40.6623 38.6439C40.5248 39.0735 40.4363 39.5117 40.3879 39.9501C38.715 39.1965 36.7414 39.1744 35.0032 40.0685C33.5472 40.8214 32.4604 42.1029 31.9555 43.677C31.4366 45.2985 31.5798 47.027 32.3668 48.5535L33.5755 50.8988C33.5773 50.9022 33.5866 50.9192 33.5904 50.926L33.9996 51.6896C33.9996 51.6896 33.9996 51.6896 34.0014 51.693L34.0593 51.7986L36.1994 55.764L15.7383 66.9672C15.7042 66.9858 15.6738 67.0114 15.6415 67.0335C15.6126 67.0537 15.5819 67.0705 15.5549 67.0941C15.5127 67.1305 15.4758 67.1685 15.4423 67.2045C15.4221 67.2244 15.3967 67.2428 15.3784 67.2661C15.3418 67.3127 15.307 67.3627 15.2742 67.4162C15.2661 67.4339 15.2543 67.4448 15.2444 67.459L15.2314 67.4839C15.2298 67.4892 15.2264 67.491 15.2248 67.4963L10.2609 76.4232C10.2559 76.4303 10.2544 76.4356 10.2513 76.4461C10.2283 76.4853 10.2125 76.5294 10.1967 76.5734C10.1806 76.6088 10.1645 76.6442 10.1571 76.6793C10.1444 76.7128 10.1388 76.7513 10.1314 76.7864C10.1227 76.8354 10.1122 76.881 10.1104 76.9263C10.1107 76.935 10.1057 76.9421 10.106 76.9508C10.1036 76.9787 10.1098 77.0063 10.1073 77.0343C10.1089 77.0777 10.109 77.1264 10.1158 77.1713C10.119 77.2095 10.1274 77.2491 10.1358 77.2888C10.1442 77.3285 10.1526 77.3682 10.1644 77.406C10.1763 77.4438 10.1934 77.4832 10.2086 77.5191C10.2257 77.5584 10.241 77.5944 10.2596 77.6285C10.2783 77.6625 10.3003 77.6947 10.3224 77.7269C10.3463 77.7625 10.3684 77.7947 10.3958 77.8285C10.4212 77.8588 10.4501 77.8873 10.479 77.9157C10.5079 77.9442 10.535 77.9693 10.5673 77.9959C10.6015 78.0259 10.6406 78.0487 10.6782 78.0768C10.703 78.0898 10.7229 78.1099 10.7478 78.1229C10.7549 78.1278 10.7655 78.1309 10.7779 78.1374C10.7956 78.1454 10.8133 78.1534 10.8257 78.1599C10.886 78.1889 10.946 78.2092 11.004 78.2262C11.0146 78.2292 11.0251 78.2323 11.0357 78.2354C11.1096 78.2569 11.1814 78.2664 11.2565 78.2739C11.2652 78.2736 11.2705 78.2751 11.2758 78.2767L21.5126 78.9071C21.5806 78.9098 21.6449 78.9056 21.7092 78.9014C21.7178 78.901 21.73 78.8988 21.7386 78.8985C21.8045 78.889 21.8684 78.8762 21.9339 78.858C21.9494 78.854 21.965 78.8499 21.9786 78.8424C22.051 78.8205 22.123 78.7899 22.1913 78.7526C22.1947 78.7507 22.1981 78.7488 22.2015 78.7469L42.5874 67.5849L43.269 68.8459L48.7621 79.3322C49.774 81.2937 51.618 82.919 53.722 83.7953C53.5248 84.1646 53.3633 84.5586 53.2444 84.9736C52.8055 86.4982 52.9893 88.0981 53.7573 89.4845C55.1328 91.9643 58.0514 93.0721 60.6708 92.28L72.9872 114.774C73.3192 115.381 74.0795 115.602 74.6838 115.271L103.001 99.7666C103.609 99.4339 103.832 98.6741 103.5 98.0676L91.1235 75.4644C93.4289 73.7017 94.1624 70.4702 92.7145 67.8662C91.7566 66.141 90.0514 65.0773 88.2186 64.8585L89.2958 60.6904C89.776 59.2007 93.3981 47.572 91.272 42.7973C91.2605 42.7682 91.2437 42.7375 91.2269 42.7069L90.4881 41.3576L111.076 30.0853C111.346 30.2872 111.637 30.4552 111.947 30.5825C112.892 30.9639 113.913 30.9232 114.746 30.4671L114.749 30.4652C115.9 29.8352 116.495 28.5395 116.402 27.1691L119.942 25.2306C120.232 25.0717 120.449 24.8025 120.542 24.4859C120.638 24.1675 120.601 23.8245 120.441 23.5315L115.188 13.9456ZM19.4017 76.2676L13.4143 75.9012L16.331 70.6594L19.4017 76.2676ZM38.6772 60.3461L22.2687 69.3303C21.661 69.6631 21.438 70.4229 21.7701 71.0294C22.1022 71.6358 22.8624 71.8573 23.4701 71.5245L39.865 62.5478L41.3963 65.3851L22.0892 75.9564L18.0391 68.5594L37.3906 57.9638L38.6772 60.3461ZM100.7 98.1744L74.5818 112.475L62.924 91.1836L88.9621 76.7364L100.7 98.1744ZM89.1822 73.7506L60.6201 89.6019L60.603 89.6113C58.9506 90.516 56.8601 89.9158 55.9485 88.267C55.5014 87.4667 55.398 86.5402 55.6513 85.6574C55.9065 84.7781 56.4857 84.0447 57.2896 83.6001L85.8687 67.7395C87.5246 66.8328 89.6116 67.435 90.5232 69.0837C91.442 70.7374 90.8412 72.8334 89.1822 73.7506ZM89.002 43.863C90.4487 47.2427 87.9806 56.6187 86.9013 59.9643C86.8951 59.9854 86.8873 60.0118 86.8812 60.0329L85.5566 65.1513C85.2558 65.2585 84.9575 65.3864 84.6673 65.5453L56.0779 81.4115C55.8765 81.5218 55.6893 81.642 55.5078 81.7724C53.622 81.2461 51.8545 79.8578 50.987 78.1761L45.4792 67.6712L36.2636 50.6049L36.2207 50.5266L35.8003 49.7426C35.8003 49.7426 35.7984 49.7392 35.7966 49.7358L34.5935 47.4008C34.1156 46.4711 34.025 45.4224 34.3392 44.44C34.6409 43.4998 35.2766 42.7398 36.1466 42.2945C37.9754 41.3552 40.2476 42.1172 41.2146 43.9969C41.2202 44.0071 41.2258 44.0173 41.2314 44.0275L42.7777 46.8434L42.7888 46.8638C42.7888 46.8638 42.7888 46.8638 42.7907 46.8673L42.8597 46.9933C43.1918 47.5998 43.9521 47.8212 44.5598 47.4885C45.1675 47.1557 45.3905 46.3959 45.0585 45.7894L44.982 45.6497L44.5224 44.7942C44.5205 44.7908 44.5187 44.7874 44.5168 44.784L43.2948 42.4062C42.815 41.4732 42.7238 40.4071 43.046 39.407C43.3682 38.4068 44.0662 37.5906 44.9958 37.1082C45.9288 36.6239 46.9982 36.5344 47.9988 36.8545C48.9995 37.1746 49.8151 37.8618 50.2949 38.7948C50.3005 38.8051 50.3061 38.8153 50.3117 38.8255L51.9549 41.8185L51.9627 41.8408C51.9627 41.8408 51.9661 41.839 51.968 41.8424L51.9736 41.8526C51.9904 41.8833 52.0087 41.9087 52.0289 41.9375C52.0547 41.9765 52.0824 42.0189 52.1116 42.056C52.1389 42.0898 52.1713 42.1164 52.202 42.1482C52.229 42.1733 52.2545 42.2036 52.285 42.2268C52.3244 42.2584 52.3707 42.2862 52.4151 42.3106C52.4419 42.3269 52.4599 42.3436 52.4847 42.3566C52.5397 42.3841 52.5962 42.4063 52.6509 42.425C52.672 42.4312 52.6863 42.4411 52.7074 42.4472C52.7708 42.4657 52.8391 42.477 52.9056 42.4849C52.9161 42.488 52.9285 42.4945 52.9406 42.4923C53.0158 42.4998 53.0906 42.4987 53.1636 42.4942C53.1723 42.4939 53.1776 42.4954 53.181 42.4935C53.3511 42.4801 53.5147 42.4304 53.6684 42.3462C53.6718 42.3444 53.6718 42.3444 53.6718 42.3444C54.1873 42.0621 54.4216 41.4688 54.2747 40.9248C54.2725 40.9127 54.2756 40.9022 54.2681 40.8886C54.2522 40.8352 54.2258 40.7789 54.2012 40.7259C54.1916 40.7002 54.1857 40.6813 54.1726 40.6574L54.1689 40.6506C54.1689 40.6506 54.1689 40.6506 54.167 40.6472L54.1521 40.6199L53.6997 39.7693C53.6978 39.7659 53.6959 39.7625 53.6941 39.7591L52.472 37.3813C51.9888 36.4502 51.9011 35.3822 52.2233 34.3821C52.5455 33.382 53.2416 32.5623 54.1678 32.0818C56.1009 31.0898 58.4809 31.846 59.474 33.7734C59.4778 33.7802 59.4834 33.7904 59.489 33.8006L61.14 36.816C61.14 36.816 61.1418 36.8194 61.1437 36.8228L61.1474 36.8296C61.1549 36.8432 61.1676 36.8584 61.1804 36.8736C61.2121 36.9315 61.2453 36.9841 61.2854 37.033C61.3053 37.0531 61.3286 37.0714 61.3485 37.0915C61.383 37.1302 61.4228 37.1704 61.4622 37.2019C61.4927 37.2251 61.5247 37.243 61.5551 37.2662C61.5924 37.2857 61.6266 37.3157 61.6639 37.3351C61.7064 37.3561 61.7486 37.3684 61.7928 37.3841C61.8229 37.3986 61.853 37.4131 61.8847 37.4224C61.9375 37.4377 61.9918 37.4478 62.0443 37.4545C62.0688 37.4588 62.0952 37.4665 62.1198 37.4708C62.1809 37.4772 62.2452 37.473 62.3061 37.4706C62.3235 37.47 62.3427 37.4727 62.3601 37.4721C62.4312 37.4641 62.4986 37.4494 62.5675 37.4294C62.5796 37.4272 62.5883 37.4268 62.6004 37.4246C62.6727 37.4027 62.7448 37.3722 62.8164 37.3329C62.8199 37.331 62.8286 37.3307 62.832 37.3288C62.8354 37.327 62.8354 37.327 62.8354 37.327C62.8388 37.3251 62.8422 37.3232 62.8456 37.3214C63.368 37.0354 63.6038 36.4368 63.4497 35.8879C63.446 35.8811 63.4475 35.8758 63.4472 35.8671C63.4258 35.8036 63.3975 35.7438 63.3692 35.684C63.3633 35.6651 63.3592 35.6496 63.3499 35.6325L63.348 35.6291C63.3461 35.6257 63.3461 35.6257 63.3443 35.6223L63.3182 35.5746L62.8769 34.7445C62.8751 34.7411 62.8732 34.7377 62.8713 34.7343L61.6459 32.3583C61.1661 31.4253 61.0784 30.3573 61.4005 29.3572C61.7227 28.3571 62.4087 27.5431 63.3451 27.0569C64.28 26.576 65.3493 26.4866 66.35 26.8067C67.3506 27.1268 68.1662 27.8139 68.646 28.747C68.6516 28.7572 68.6572 28.7674 68.6628 28.7776L70.3194 31.8032L78.378 46.5535C78.3798 46.5569 78.3817 46.5603 78.3817 46.5603C78.3836 46.5637 78.3854 46.5671 78.3854 46.5671L82.2048 53.559C82.5369 54.1654 83.2972 54.3869 83.9049 54.0541C84.5126 53.7214 84.7356 52.9616 84.4054 52.3585L81.1811 46.4535L88.2894 42.5615L89.002 43.863ZM88.1976 39.7597C88.1942 39.7616 88.1908 39.7635 88.1874 39.7654C88.1839 39.7672 88.1805 39.7691 88.1771 39.771L79.9797 44.2593L78.4347 41.4295L105.468 26.6278C106.076 26.2951 106.299 25.5352 105.967 24.9288C105.635 24.3223 104.874 24.1008 104.267 24.4336L77.2367 39.2334L75.9364 36.8586L105.479 20.6829L109.529 28.0799L88.1976 39.7597ZM113.673 26.5862C113.721 26.6748 113.763 26.7671 113.797 26.8545C113.798 26.8719 113.807 26.8889 113.813 26.9078C114.024 27.5276 113.872 28.0934 113.548 28.271L114.149 29.3681L113.545 28.2729C113.312 28.4 113.04 28.3234 112.893 28.2664C112.561 28.1295 112.256 27.8403 112.054 27.4723L107.355 18.8896C107.299 18.7874 107.256 18.6917 107.222 18.5903C106.997 17.9606 107.15 17.3809 107.482 17.1996C107.714 17.0724 107.988 17.1524 108.133 17.206C108.37 17.3065 108.591 17.4825 108.776 17.7084C108.786 17.7255 108.797 17.7372 108.809 17.7524C108.87 17.8301 108.923 17.9115 108.972 18.0001L113.673 26.5862ZM115.547 24.7895L111.497 17.3925L113.59 16.2466L117.64 23.6436L115.547 24.7895Z" fill="white"/>
</svg>
