<svg width="31" height="25" viewBox="0 0 31 25" fill="none" xmlns="http://www.w3.org/2000/svg">
<path d="M30.5108 22.5938L24.3585 9.82031C24.2449 9.58442 24.0521 9.38275 23.8047 9.24084C23.5572 9.09894 23.2661 9.02319 22.9684 9.02319C22.6707 9.02319 22.3796 9.09894 22.1322 9.24084C21.8847 9.38275 21.6919 9.58442 21.5783 9.82031L15.426 22.5938C15.3495 22.7504 15.3098 22.9185 15.3093 23.0883C15.3088 23.2581 15.3475 23.4263 15.4231 23.5833C15.4987 23.7403 15.6097 23.8829 15.7498 24.003C15.8898 24.1231 16.0562 24.2182 16.2394 24.283C16.4225 24.3478 16.6187 24.381 16.8169 24.3806C17.015 24.3802 17.2111 24.3462 17.3938 24.2807C17.5766 24.2151 17.7424 24.1192 17.8818 23.9986C18.0212 23.8779 18.1315 23.7348 18.2062 23.5775L19.4592 20.9766H26.4776L27.7307 23.5775C27.8443 23.8135 28.037 24.0153 28.2846 24.1573C28.5321 24.2993 28.8233 24.375 29.1211 24.375C29.3682 24.3749 29.6115 24.3225 29.8294 24.2227C30.0473 24.1228 30.2332 23.9784 30.3705 23.8023C30.5078 23.6262 30.5924 23.4238 30.6168 23.213C30.6411 23.0022 30.6052 22.7895 30.5108 22.5938ZM20.7013 18.3984L22.9688 13.6904L25.2362 18.3984H20.7013ZM16.1219 17.2805C16.3555 17.0038 16.4515 16.659 16.3889 16.3218C16.3262 15.9845 16.1099 15.6824 15.7876 15.4816C15.7739 15.4729 14.7622 14.8295 13.2932 13.4467C16.0036 10.3014 17.539 6.72305 18.1651 5.03906H20.3711C20.77 5.03906 21.1525 4.90325 21.4345 4.6615C21.7166 4.41976 21.875 4.09188 21.875 3.75C21.875 3.40812 21.7166 3.08024 21.4345 2.8385C21.1525 2.59675 20.77 2.46094 20.3711 2.46094H12.4414V1.28906C12.4414 0.947182 12.283 0.619304 12.0009 0.377558C11.7189 0.135811 11.3364 0 10.9375 0C10.5386 0 10.1561 0.135811 9.87408 0.377558C9.59204 0.619304 9.43359 0.947182 9.43359 1.28906V2.46094H1.50391C1.10505 2.46094 0.722521 2.59675 0.440484 2.8385C0.158447 3.08024 0 3.40812 0 3.75C0 4.09188 0.158447 4.41976 0.440484 4.6615C0.722521 4.90325 1.10505 5.03906 1.50391 5.03906H14.9878C14.337 6.61816 13.1387 9.11133 11.3107 11.3883C9.16358 8.94609 8.36582 7.36582 8.35967 7.35293C8.20248 7.04156 7.90841 6.79585 7.54124 6.66911C7.17408 6.54237 6.76342 6.54481 6.39834 6.6759C6.03326 6.80699 5.7432 7.05617 5.59106 7.36938C5.43892 7.68259 5.43697 8.03459 5.58564 8.34902C5.62529 8.42988 6.58027 10.3547 9.19912 13.2668C9.26201 13.3365 9.32422 13.4045 9.38643 13.4725C6.704 16.0711 4.07217 17.683 2.9709 18.2033C2.62072 18.367 2.36075 18.6433 2.24819 18.9713C2.13564 19.2993 2.1797 19.6522 2.3707 19.9523C2.5617 20.2525 2.88399 20.4753 3.26666 20.5718C3.64934 20.6683 4.06105 20.6305 4.41123 20.4668C4.55889 20.3977 7.7335 18.8912 11.3586 15.4518C12.898 16.8627 13.9563 17.5283 14.0198 17.567C14.1798 17.6666 14.3611 17.7382 14.5533 17.7776C14.7456 17.8171 14.9451 17.8237 15.1403 17.797C15.3355 17.7704 15.5227 17.711 15.6912 17.6222C15.8596 17.5335 16.006 17.4177 16.1219 17.2805Z" fill="black"/>
</svg>
