<svg width="445" height="150" viewBox="0 0 445 150" fill="none" xmlns="http://www.w3.org/2000/svg">
<path d="M110.344 111.384C108.403 111.384 106.867 111.043 105.736 110.36C104.605 109.677 103.795 108.696 103.304 107.416C102.813 106.136 102.568 104.611 102.568 102.84V93.208C102.568 91.416 102.813 89.8907 103.304 88.632C103.795 87.3733 104.605 86.4133 105.736 85.752C106.867 85.0693 108.403 84.728 110.344 84.728C112.307 84.728 113.853 85.0693 114.984 85.752C116.136 86.4133 116.957 87.3733 117.448 88.632C117.939 89.8907 118.184 91.416 118.184 93.208V102.84C118.184 104.611 117.939 106.136 117.448 107.416C116.957 108.696 116.136 109.677 114.984 110.36C113.853 111.043 112.307 111.384 110.344 111.384ZM110.344 107.32C110.941 107.32 111.379 107.171 111.656 106.872C111.933 106.573 112.115 106.189 112.2 105.72C112.285 105.251 112.328 104.771 112.328 104.28V91.8C112.328 91.288 112.285 90.808 112.2 90.36C112.115 89.8907 111.933 89.5067 111.656 89.208C111.379 88.9093 110.941 88.76 110.344 88.76C109.789 88.76 109.373 88.9093 109.096 89.208C108.819 89.5067 108.637 89.8907 108.552 90.36C108.467 90.808 108.424 91.288 108.424 91.8V104.28C108.424 104.771 108.456 105.251 108.52 105.72C108.605 106.189 108.776 106.573 109.032 106.872C109.309 107.171 109.747 107.32 110.344 107.32ZM129.858 111V85.08H141.506V88.984H135.586V95.416H140.098V99.384H135.586V107.128H141.57V111H129.858ZM144.17 111V85.08H150.73C152.991 85.08 154.751 85.368 156.01 85.944C157.269 86.4987 158.154 87.384 158.666 88.6C159.178 89.7947 159.434 91.352 159.434 93.272V102.68C159.434 104.621 159.178 106.211 158.666 107.448C158.154 108.664 157.269 109.56 156.01 110.136C154.773 110.712 153.034 111 150.794 111H144.17ZM149.898 107.032H150.794C151.669 107.032 152.298 106.904 152.682 106.648C153.066 106.392 153.301 106.008 153.386 105.496C153.493 104.984 153.546 104.344 153.546 103.576V92.28C153.546 91.512 153.482 90.8933 153.354 90.424C153.247 89.9547 153.002 89.6133 152.618 89.4C152.234 89.1867 151.615 89.08 150.762 89.08H149.898V107.032ZM170.408 111.384C168.424 111.384 166.867 111.064 165.736 110.424C164.627 109.763 163.848 108.813 163.4 107.576C162.952 106.317 162.728 104.781 162.728 102.968V85.08H168.392V103.832C168.392 104.365 168.435 104.899 168.52 105.432C168.605 105.965 168.787 106.403 169.064 106.744C169.363 107.085 169.811 107.256 170.408 107.256C171.027 107.256 171.475 107.085 171.752 106.744C172.029 106.403 172.2 105.965 172.264 105.432C172.349 104.899 172.392 104.365 172.392 103.832V85.08H178.088V102.968C178.088 104.781 177.853 106.317 177.384 107.576C176.936 108.813 176.157 109.763 175.048 110.424C173.939 111.064 172.392 111.384 170.408 111.384ZM189.157 111.384C187.194 111.384 185.637 111.032 184.485 110.328C183.354 109.603 182.554 108.6 182.085 107.32C181.615 106.019 181.381 104.493 181.381 102.744V93.4C181.381 91.608 181.615 90.072 182.085 88.792C182.554 87.4907 183.354 86.488 184.485 85.784C185.637 85.08 187.194 84.728 189.157 84.728C191.077 84.728 192.57 85.048 193.637 85.688C194.725 86.3067 195.493 87.1813 195.941 88.312C196.389 89.4427 196.613 90.744 196.613 92.216V94.456H191.013V91.864C191.013 91.352 190.981 90.8613 190.917 90.392C190.874 89.9227 190.725 89.5387 190.469 89.24C190.213 88.92 189.775 88.76 189.157 88.76C188.559 88.76 188.111 88.92 187.812 89.24C187.535 89.56 187.354 89.9653 187.269 90.456C187.205 90.9253 187.173 91.4267 187.173 91.96V104.152C187.173 104.728 187.215 105.261 187.301 105.752C187.407 106.221 187.599 106.605 187.877 106.904C188.175 107.181 188.602 107.32 189.157 107.32C189.754 107.32 190.181 107.171 190.437 106.872C190.693 106.552 190.853 106.147 190.917 105.656C190.981 105.165 191.013 104.664 191.013 104.152V101.432H196.613V103.672C196.613 105.144 196.389 106.467 195.941 107.64C195.514 108.792 194.757 109.709 193.669 110.392C192.602 111.053 191.098 111.384 189.157 111.384ZM198.516 111L203.412 85.08H209.94L214.772 111H209.492L208.628 105.528H204.82L203.924 111H198.516ZM205.332 102.104H208.084L206.708 91.992L205.332 102.104ZM217.389 111V85.08H223.949C226.21 85.08 227.97 85.368 229.229 85.944C230.487 86.4987 231.373 87.384 231.885 88.6C232.397 89.7947 232.653 91.352 232.653 93.272V102.68C232.653 104.621 232.397 106.211 231.885 107.448C231.373 108.664 230.487 109.56 229.229 110.136C227.991 110.712 226.253 111 224.013 111H217.389ZM223.117 107.032H224.013C224.887 107.032 225.517 106.904 225.901 106.648C226.285 106.392 226.519 106.008 226.605 105.496C226.711 104.984 226.765 104.344 226.765 103.576V92.28C226.765 91.512 226.701 90.8933 226.573 90.424C226.466 89.9547 226.221 89.6133 225.837 89.4C225.453 89.1867 224.834 89.08 223.981 89.08H223.117V107.032ZM243.563 111.384C241.621 111.384 240.085 111.043 238.955 110.36C237.824 109.677 237.013 108.696 236.523 107.416C236.032 106.136 235.787 104.611 235.787 102.84V93.208C235.787 91.416 236.032 89.8907 236.523 88.632C237.013 87.3733 237.824 86.4133 238.955 85.752C240.085 85.0693 241.621 84.728 243.563 84.728C245.525 84.728 247.072 85.0693 248.203 85.752C249.355 86.4133 250.176 87.3733 250.667 88.632C251.157 89.8907 251.403 91.416 251.403 93.208V102.84C251.403 104.611 251.157 106.136 250.667 107.416C250.176 108.696 249.355 109.677 248.203 110.36C247.072 111.043 245.525 111.384 243.563 111.384ZM243.563 107.32C244.16 107.32 244.597 107.171 244.875 106.872C245.152 106.573 245.333 106.189 245.419 105.72C245.504 105.251 245.547 104.771 245.547 104.28V91.8C245.547 91.288 245.504 90.808 245.419 90.36C245.333 89.8907 245.152 89.5067 244.875 89.208C244.597 88.9093 244.16 88.76 243.563 88.76C243.008 88.76 242.592 88.9093 242.315 89.208C242.037 89.5067 241.856 89.8907 241.771 90.36C241.685 90.808 241.643 91.288 241.643 91.8V104.28C241.643 104.771 241.675 105.251 241.739 105.72C241.824 106.189 241.995 106.573 242.251 106.872C242.528 107.171 242.965 107.32 243.563 107.32ZM254.889 111V85.08H262.025C263.774 85.08 265.289 85.272 266.569 85.656C267.849 86.04 268.841 86.7333 269.545 87.736C270.27 88.7173 270.633 90.1147 270.633 91.928C270.633 92.9947 270.547 93.944 270.377 94.776C270.206 95.608 269.886 96.3333 269.417 96.952C268.969 97.5493 268.318 98.0507 267.465 98.456L271.017 111H265.097L262.249 99.384H260.617V111H254.889ZM260.617 96.088H262.217C263.027 96.088 263.657 95.9493 264.105 95.672C264.553 95.3733 264.862 94.9573 265.033 94.424C265.225 93.8693 265.321 93.208 265.321 92.44C265.321 91.3307 265.118 90.4667 264.713 89.848C264.307 89.2293 263.561 88.92 262.473 88.92H260.617V96.088Z" fill="black"/>
<path d="M31.048 136.108C30.488 136.108 30.02 135.988 29.644 135.748C29.276 135.508 28.996 135.176 28.804 134.752C28.612 134.328 28.5 133.836 28.468 133.276L29.668 132.952C29.692 133.296 29.744 133.628 29.824 133.948C29.912 134.268 30.052 134.532 30.244 134.74C30.436 134.94 30.704 135.04 31.048 135.04C31.4 135.04 31.664 134.944 31.84 134.752C32.024 134.552 32.116 134.268 32.116 133.9C32.116 133.46 32.016 133.108 31.816 132.844C31.616 132.572 31.364 132.3 31.06 132.028L29.428 130.588C29.108 130.308 28.872 130.004 28.72 129.676C28.568 129.34 28.492 128.928 28.492 128.44C28.492 127.728 28.696 127.176 29.104 126.784C29.512 126.392 30.068 126.196 30.772 126.196C31.156 126.196 31.492 126.248 31.78 126.352C32.076 126.448 32.32 126.6 32.512 126.808C32.712 127.016 32.868 127.28 32.98 127.6C33.1 127.912 33.18 128.28 33.22 128.704L32.068 129.016C32.044 128.696 31.996 128.404 31.924 128.14C31.852 127.868 31.724 127.652 31.54 127.492C31.364 127.324 31.108 127.24 30.772 127.24C30.436 127.24 30.172 127.332 29.98 127.516C29.796 127.692 29.704 127.956 29.704 128.308C29.704 128.604 29.752 128.848 29.848 129.04C29.952 129.232 30.116 129.428 30.34 129.628L31.984 131.068C32.352 131.388 32.676 131.772 32.956 132.22C33.236 132.66 33.376 133.184 33.376 133.792C33.376 134.272 33.276 134.688 33.076 135.04C32.876 135.384 32.6 135.648 32.248 135.832C31.904 136.016 31.504 136.108 31.048 136.108ZM36.8279 136V126.28H40.5959V127.288H38.1839V130.504H40.1399V131.464H38.1839V135.028H40.6199V136H36.8279ZM44.1146 136V126.28H45.4706V135.028H47.9546V136H44.1146ZM51.2841 136V126.28H55.0521V127.288H52.6401V130.504H54.5961V131.464H52.6401V135.028H55.0761V136H51.2841ZM61.0068 136.108C60.3188 136.108 59.7828 135.964 59.3988 135.676C59.0228 135.388 58.7588 135 58.6068 134.512C58.4628 134.024 58.3908 133.48 58.3908 132.88V129.448C58.3908 128.792 58.4628 128.22 58.6068 127.732C58.7588 127.244 59.0228 126.868 59.3988 126.604C59.7828 126.332 60.3188 126.196 61.0068 126.196C61.6148 126.196 62.0948 126.308 62.4468 126.532C62.8068 126.756 63.0628 127.076 63.2148 127.492C63.3748 127.908 63.4548 128.408 63.4548 128.992V129.76H62.1708V129.076C62.1708 128.716 62.1508 128.4 62.1108 128.128C62.0788 127.848 61.9828 127.632 61.8228 127.48C61.6628 127.328 61.3948 127.252 61.0188 127.252C60.6348 127.252 60.3548 127.336 60.1788 127.504C60.0028 127.664 59.8868 127.896 59.8308 128.2C59.7828 128.496 59.7588 128.844 59.7588 129.244V133.096C59.7588 133.584 59.7988 133.972 59.8788 134.26C59.9588 134.54 60.0908 134.74 60.2748 134.86C60.4588 134.98 60.7068 135.04 61.0188 135.04C61.3868 135.04 61.6508 134.96 61.8108 134.8C61.9708 134.632 62.0708 134.404 62.1108 134.116C62.1508 133.828 62.1708 133.492 62.1708 133.108V132.388H63.4548V133.108C63.4548 133.7 63.3828 134.224 63.2388 134.68C63.0948 135.128 62.8468 135.48 62.4948 135.736C62.1428 135.984 61.6468 136.108 61.0068 136.108ZM67.2186 136V126.28H68.5506V136H67.2186ZM75.0072 136.108C74.3512 136.108 73.8272 135.98 73.4352 135.724C73.0432 135.468 72.7632 135.104 72.5952 134.632C72.4272 134.152 72.3432 133.592 72.3432 132.952V129.268C72.3432 128.628 72.4272 128.08 72.5952 127.624C72.7712 127.16 73.0512 126.808 73.4352 126.568C73.8272 126.32 74.3512 126.196 75.0072 126.196C75.6632 126.196 76.1832 126.32 76.5672 126.568C76.9512 126.816 77.2272 127.168 77.3952 127.624C77.5712 128.08 77.6592 128.628 77.6592 129.268V132.964C77.6592 133.596 77.5712 134.148 77.3952 134.62C77.2272 135.092 76.9512 135.46 76.5672 135.724C76.1832 135.98 75.6632 136.108 75.0072 136.108ZM75.0072 135.04C75.3672 135.04 75.6392 134.968 75.8232 134.824C76.0072 134.672 76.1312 134.464 76.1952 134.2C76.2592 133.928 76.2912 133.612 76.2912 133.252V128.992C76.2912 128.632 76.2592 128.324 76.1952 128.068C76.1312 127.804 76.0072 127.604 75.8232 127.468C75.6392 127.324 75.3672 127.252 75.0072 127.252C74.6472 127.252 74.3712 127.324 74.1792 127.468C73.9952 127.604 73.8712 127.804 73.8072 128.068C73.7432 128.324 73.7112 128.632 73.7112 128.992V133.252C73.7112 133.612 73.7432 133.928 73.8072 134.2C73.8712 134.464 73.9952 134.672 74.1792 134.824C74.3712 134.968 74.6472 135.04 75.0072 135.04ZM81.3919 136V126.28H82.3159L85.0759 132.736V126.28H86.2039V136H85.3399L82.5439 129.364V136H81.3919ZM90.1318 136V126.28H93.8998V127.288H91.4878V130.504H93.4438V131.464H91.4878V135.028H93.9238V136H90.1318ZM105.069 136.108C104.365 136.108 103.825 135.968 103.449 135.688C103.073 135.408 102.817 135.016 102.681 134.512C102.545 134 102.477 133.404 102.477 132.724V126.28H103.773V132.784C103.773 133.2 103.801 133.58 103.857 133.924C103.913 134.268 104.033 134.54 104.217 134.74C104.409 134.94 104.693 135.04 105.069 135.04C105.453 135.04 105.737 134.94 105.921 134.74C106.105 134.54 106.225 134.268 106.281 133.924C106.337 133.58 106.365 133.2 106.365 132.784V126.28H107.649V132.724C107.649 133.404 107.581 134 107.445 134.512C107.309 135.016 107.053 135.408 106.677 135.688C106.309 135.968 105.773 136.108 105.069 136.108ZM111.452 136L111.632 126.28H112.964L114.68 134.164L116.408 126.28H117.728L117.908 136H116.816L116.708 128.944L115.064 136H114.296L112.664 128.944L112.556 136H111.452ZM129.448 136.108C128.744 136.108 128.204 135.968 127.828 135.688C127.452 135.408 127.196 135.016 127.06 134.512C126.924 134 126.856 133.404 126.856 132.724V126.28H128.152V132.784C128.152 133.2 128.18 133.58 128.236 133.924C128.292 134.268 128.412 134.54 128.596 134.74C128.788 134.94 129.072 135.04 129.448 135.04C129.832 135.04 130.116 134.94 130.3 134.74C130.484 134.54 130.604 134.268 130.66 133.924C130.716 133.58 130.744 133.2 130.744 132.784V126.28H132.028V132.724C132.028 133.404 131.96 134 131.824 134.512C131.688 135.016 131.432 135.408 131.056 135.688C130.688 135.968 130.152 136.108 129.448 136.108ZM138.148 136.108C137.588 136.108 137.12 135.988 136.744 135.748C136.376 135.508 136.096 135.176 135.904 134.752C135.712 134.328 135.6 133.836 135.568 133.276L136.768 132.952C136.792 133.296 136.844 133.628 136.924 133.948C137.012 134.268 137.152 134.532 137.344 134.74C137.536 134.94 137.804 135.04 138.148 135.04C138.5 135.04 138.764 134.944 138.94 134.752C139.124 134.552 139.216 134.268 139.216 133.9C139.216 133.46 139.116 133.108 138.916 132.844C138.716 132.572 138.464 132.3 138.16 132.028L136.528 130.588C136.208 130.308 135.972 130.004 135.82 129.676C135.668 129.34 135.592 128.928 135.592 128.44C135.592 127.728 135.796 127.176 136.204 126.784C136.612 126.392 137.168 126.196 137.872 126.196C138.256 126.196 138.592 126.248 138.88 126.352C139.176 126.448 139.42 126.6 139.612 126.808C139.812 127.016 139.968 127.28 140.08 127.6C140.2 127.912 140.28 128.28 140.32 128.704L139.168 129.016C139.144 128.696 139.096 128.404 139.024 128.14C138.952 127.868 138.824 127.652 138.64 127.492C138.464 127.324 138.208 127.24 137.872 127.24C137.536 127.24 137.272 127.332 137.08 127.516C136.896 127.692 136.804 127.956 136.804 128.308C136.804 128.604 136.852 128.848 136.948 129.04C137.052 129.232 137.216 129.428 137.44 129.628L139.084 131.068C139.452 131.388 139.776 131.772 140.056 132.22C140.336 132.66 140.476 133.184 140.476 133.792C140.476 134.272 140.376 134.688 140.176 135.04C139.976 135.384 139.7 135.648 139.348 135.832C139.004 136.016 138.604 136.108 138.148 136.108ZM146.436 136.108C145.732 136.108 145.192 135.968 144.816 135.688C144.44 135.408 144.184 135.016 144.048 134.512C143.912 134 143.844 133.404 143.844 132.724V126.28H145.14V132.784C145.14 133.2 145.168 133.58 145.224 133.924C145.28 134.268 145.4 134.54 145.584 134.74C145.776 134.94 146.06 135.04 146.436 135.04C146.82 135.04 147.104 134.94 147.288 134.74C147.472 134.54 147.592 134.268 147.648 133.924C147.704 133.58 147.732 133.2 147.732 132.784V126.28H149.016V132.724C149.016 133.404 148.948 134 148.812 134.512C148.676 135.016 148.42 135.408 148.044 135.688C147.676 135.968 147.14 136.108 146.436 136.108ZM152.28 136L154.344 126.28H155.652L157.728 136H156.444L156 133.552H154.02L153.552 136H152.28ZM154.2 132.58H155.82L155.004 128.2L154.2 132.58ZM154.668 125.704L155.376 123.328H156.66L155.316 125.704H154.668ZM161.115 136V126.28H163.071C163.719 126.28 164.255 126.368 164.679 126.544C165.103 126.712 165.415 126.988 165.615 127.372C165.823 127.748 165.927 128.244 165.927 128.86C165.927 129.236 165.887 129.58 165.807 129.892C165.727 130.196 165.599 130.456 165.423 130.672C165.247 130.88 165.015 131.032 164.727 131.128L166.107 136H164.799L163.527 131.44H162.471V136H161.115ZM162.471 130.468H162.987C163.371 130.468 163.683 130.42 163.923 130.324C164.163 130.228 164.339 130.064 164.451 129.832C164.563 129.6 164.619 129.276 164.619 128.86C164.619 128.292 164.515 127.884 164.307 127.636C164.099 127.38 163.687 127.252 163.071 127.252H162.471V130.468ZM169.809 136V126.28H171.141V136H169.809ZM177.598 136.108C176.942 136.108 176.418 135.98 176.026 135.724C175.634 135.468 175.354 135.104 175.186 134.632C175.018 134.152 174.934 133.592 174.934 132.952V129.268C174.934 128.628 175.018 128.08 175.186 127.624C175.362 127.16 175.642 126.808 176.026 126.568C176.418 126.32 176.942 126.196 177.598 126.196C178.254 126.196 178.774 126.32 179.158 126.568C179.542 126.816 179.818 127.168 179.986 127.624C180.162 128.08 180.25 128.628 180.25 129.268V132.964C180.25 133.596 180.162 134.148 179.986 134.62C179.818 135.092 179.542 135.46 179.158 135.724C178.774 135.98 178.254 136.108 177.598 136.108ZM177.598 135.04C177.958 135.04 178.23 134.968 178.414 134.824C178.598 134.672 178.722 134.464 178.786 134.2C178.85 133.928 178.882 133.612 178.882 133.252V128.992C178.882 128.632 178.85 128.324 178.786 128.068C178.722 127.804 178.598 127.604 178.414 127.468C178.23 127.324 177.958 127.252 177.598 127.252C177.238 127.252 176.962 127.324 176.77 127.468C176.586 127.604 176.462 127.804 176.398 128.068C176.334 128.324 176.302 128.632 176.302 128.992V133.252C176.302 133.612 176.334 133.928 176.398 134.2C176.462 134.464 176.586 134.672 176.77 134.824C176.962 134.968 177.238 135.04 177.598 135.04ZM189.125 136V126.28H191.537C192.121 126.28 192.585 126.388 192.929 126.604C193.281 126.812 193.537 127.116 193.697 127.516C193.857 127.916 193.937 128.4 193.937 128.968C193.937 129.48 193.845 129.924 193.661 130.3C193.485 130.676 193.221 130.968 192.869 131.176C192.517 131.376 192.077 131.476 191.549 131.476H190.481V136H189.125ZM190.481 130.504H191.105C191.497 130.504 191.805 130.46 192.029 130.372C192.253 130.284 192.413 130.132 192.509 129.916C192.605 129.692 192.653 129.38 192.653 128.98C192.653 128.516 192.617 128.16 192.545 127.912C192.481 127.664 192.341 127.492 192.125 127.396C191.909 127.3 191.573 127.252 191.117 127.252H190.481V130.504ZM196.223 136L198.287 126.28H199.595L201.671 136H200.387L199.943 133.552H197.963L197.495 136H196.223ZM198.143 132.58H199.763L198.947 128.2L198.143 132.58ZM205.058 136V126.28H207.014C207.662 126.28 208.198 126.368 208.622 126.544C209.046 126.712 209.358 126.988 209.558 127.372C209.766 127.748 209.87 128.244 209.87 128.86C209.87 129.236 209.83 129.58 209.75 129.892C209.67 130.196 209.542 130.456 209.366 130.672C209.19 130.88 208.958 131.032 208.67 131.128L210.05 136H208.742L207.47 131.44H206.414V136H205.058ZM206.414 130.468H206.93C207.314 130.468 207.626 130.42 207.866 130.324C208.106 130.228 208.282 130.064 208.394 129.832C208.506 129.6 208.562 129.276 208.562 128.86C208.562 128.292 208.458 127.884 208.25 127.636C208.042 127.38 207.63 127.252 207.014 127.252H206.414V130.468ZM213.152 136L215.216 126.28H216.524L218.6 136H217.316L216.872 133.552H214.892L214.424 136H213.152ZM215.072 132.58H216.692L215.876 128.2L215.072 132.58ZM229.565 136.108C228.877 136.108 228.341 135.964 227.957 135.676C227.581 135.388 227.317 135 227.165 134.512C227.021 134.024 226.949 133.48 226.949 132.88V129.448C226.949 128.792 227.021 128.22 227.165 127.732C227.317 127.244 227.581 126.868 227.957 126.604C228.341 126.332 228.877 126.196 229.565 126.196C230.173 126.196 230.653 126.308 231.005 126.532C231.365 126.756 231.621 127.076 231.773 127.492C231.933 127.908 232.013 128.408 232.013 128.992V129.76H230.729V129.076C230.729 128.716 230.709 128.4 230.669 128.128C230.637 127.848 230.541 127.632 230.381 127.48C230.221 127.328 229.953 127.252 229.577 127.252C229.193 127.252 228.913 127.336 228.737 127.504C228.561 127.664 228.445 127.896 228.389 128.2C228.341 128.496 228.317 128.844 228.317 129.244V133.096C228.317 133.584 228.357 133.972 228.437 134.26C228.517 134.54 228.649 134.74 228.833 134.86C229.017 134.98 229.265 135.04 229.577 135.04C229.945 135.04 230.209 134.96 230.369 134.8C230.529 134.632 230.629 134.404 230.669 134.116C230.709 133.828 230.729 133.492 230.729 133.108V132.388H232.013V133.108C232.013 133.7 231.941 134.224 231.797 134.68C231.653 135.128 231.405 135.48 231.053 135.736C230.701 135.984 230.205 136.108 229.565 136.108ZM238.188 136.108C237.532 136.108 237.008 135.98 236.616 135.724C236.224 135.468 235.944 135.104 235.776 134.632C235.608 134.152 235.524 133.592 235.524 132.952V129.268C235.524 128.628 235.608 128.08 235.776 127.624C235.952 127.16 236.232 126.808 236.616 126.568C237.008 126.32 237.532 126.196 238.188 126.196C238.844 126.196 239.364 126.32 239.748 126.568C240.132 126.816 240.408 127.168 240.576 127.624C240.752 128.08 240.84 128.628 240.84 129.268V132.964C240.84 133.596 240.752 134.148 240.576 134.62C240.408 135.092 240.132 135.46 239.748 135.724C239.364 135.98 238.844 136.108 238.188 136.108ZM238.188 135.04C238.548 135.04 238.82 134.968 239.004 134.824C239.188 134.672 239.312 134.464 239.376 134.2C239.44 133.928 239.472 133.612 239.472 133.252V128.992C239.472 128.632 239.44 128.324 239.376 128.068C239.312 127.804 239.188 127.604 239.004 127.468C238.82 127.324 238.548 127.252 238.188 127.252C237.828 127.252 237.552 127.324 237.36 127.468C237.176 127.604 237.052 127.804 236.988 128.068C236.924 128.324 236.892 128.632 236.892 128.992V133.252C236.892 133.612 236.924 133.928 236.988 134.2C237.052 134.464 237.176 134.672 237.36 134.824C237.552 134.968 237.828 135.04 238.188 135.04ZM244.549 136L244.729 126.28H246.061L247.777 134.164L249.505 126.28H250.825L251.005 136H249.913L249.805 128.944L248.161 136H247.393L245.761 128.944L245.653 136H244.549ZM254.895 136V126.28H258.663V127.288H256.251V130.504H258.207V131.464H256.251V135.028H258.687V136H254.895ZM264.618 136.108C263.93 136.108 263.394 135.964 263.01 135.676C262.634 135.388 262.37 135 262.218 134.512C262.074 134.024 262.002 133.48 262.002 132.88V129.448C262.002 128.792 262.074 128.22 262.218 127.732C262.37 127.244 262.634 126.868 263.01 126.604C263.394 126.332 263.93 126.196 264.618 126.196C265.226 126.196 265.706 126.308 266.058 126.532C266.418 126.756 266.674 127.076 266.826 127.492C266.986 127.908 267.066 128.408 267.066 128.992V129.76H265.782V129.076C265.782 128.716 265.762 128.4 265.722 128.128C265.69 127.848 265.594 127.632 265.434 127.48C265.274 127.328 265.006 127.252 264.63 127.252C264.246 127.252 263.966 127.336 263.79 127.504C263.614 127.664 263.498 127.896 263.442 128.2C263.394 128.496 263.37 128.844 263.37 129.244V133.096C263.37 133.584 263.41 133.972 263.49 134.26C263.57 134.54 263.702 134.74 263.886 134.86C264.07 134.98 264.318 135.04 264.63 135.04C264.998 135.04 265.262 134.96 265.422 134.8C265.582 134.632 265.682 134.404 265.722 134.116C265.762 133.828 265.782 133.492 265.782 133.108V132.388H267.066V133.108C267.066 133.7 266.994 134.224 266.85 134.68C266.706 135.128 266.458 135.48 266.106 135.736C265.754 135.984 265.258 136.108 264.618 136.108ZM264.678 138.82C264.55 138.82 264.418 138.808 264.282 138.784C264.146 138.76 264.01 138.732 263.874 138.7V138.052C263.978 138.084 264.082 138.104 264.186 138.112C264.29 138.128 264.39 138.136 264.486 138.136C264.694 138.136 264.866 138.1 265.002 138.028C265.146 137.956 265.218 137.836 265.218 137.668C265.218 137.524 265.178 137.408 265.098 137.32C265.018 137.24 264.902 137.172 264.75 137.116C264.598 137.068 264.414 137.028 264.198 136.996V136H264.846V136.672C265.246 136.672 265.566 136.764 265.806 136.948C266.054 137.132 266.178 137.384 266.178 137.704C266.178 137.96 266.11 138.168 265.974 138.328C265.846 138.496 265.666 138.62 265.434 138.7C265.21 138.78 264.958 138.82 264.678 138.82ZM270.23 136L272.294 126.28H273.602L275.678 136H274.394L273.95 133.552H271.97L271.502 136H270.23ZM272.15 132.58H273.77L272.954 128.2L272.15 132.58ZM279.064 136V126.28H281.02C281.668 126.28 282.204 126.368 282.628 126.544C283.052 126.712 283.364 126.988 283.564 127.372C283.772 127.748 283.876 128.244 283.876 128.86C283.876 129.236 283.836 129.58 283.756 129.892C283.676 130.196 283.548 130.456 283.372 130.672C283.196 130.88 282.964 131.032 282.676 131.128L284.056 136H282.748L281.476 131.44H280.42V136H279.064ZM280.42 130.468H280.936C281.32 130.468 281.632 130.42 281.872 130.324C282.112 130.228 282.288 130.064 282.4 129.832C282.512 129.6 282.568 129.276 282.568 128.86C282.568 128.292 282.464 127.884 282.256 127.636C282.048 127.38 281.636 127.252 281.02 127.252H280.42V130.468ZM292.301 136L294.365 126.28H295.673L297.749 136H296.465L296.021 133.552H294.041L293.573 136H292.301ZM294.221 132.58H295.841L295.025 128.2L294.221 132.58ZM308.713 136.108C308.025 136.108 307.489 135.964 307.105 135.676C306.729 135.388 306.465 135 306.313 134.512C306.169 134.024 306.097 133.48 306.097 132.88V129.448C306.097 128.792 306.169 128.22 306.313 127.732C306.465 127.244 306.729 126.868 307.105 126.604C307.489 126.332 308.025 126.196 308.713 126.196C309.321 126.196 309.801 126.308 310.153 126.532C310.513 126.756 310.769 127.076 310.921 127.492C311.081 127.908 311.161 128.408 311.161 128.992V129.76H309.877V129.076C309.877 128.716 309.857 128.4 309.817 128.128C309.785 127.848 309.689 127.632 309.529 127.48C309.369 127.328 309.101 127.252 308.725 127.252C308.341 127.252 308.061 127.336 307.885 127.504C307.709 127.664 307.593 127.896 307.537 128.2C307.489 128.496 307.465 128.844 307.465 129.244V133.096C307.465 133.584 307.505 133.972 307.585 134.26C307.665 134.54 307.797 134.74 307.981 134.86C308.165 134.98 308.413 135.04 308.725 135.04C309.093 135.04 309.357 134.96 309.517 134.8C309.677 134.632 309.777 134.404 309.817 134.116C309.857 133.828 309.877 133.492 309.877 133.108V132.388H311.161V133.108C311.161 133.7 311.089 134.224 310.945 134.68C310.801 135.128 310.553 135.48 310.201 135.736C309.849 135.984 309.353 136.108 308.713 136.108ZM317.337 136.108C316.681 136.108 316.157 135.98 315.765 135.724C315.373 135.468 315.093 135.104 314.925 134.632C314.757 134.152 314.673 133.592 314.673 132.952V129.268C314.673 128.628 314.757 128.08 314.925 127.624C315.101 127.16 315.381 126.808 315.765 126.568C316.157 126.32 316.681 126.196 317.337 126.196C317.993 126.196 318.513 126.32 318.897 126.568C319.281 126.816 319.557 127.168 319.725 127.624C319.901 128.08 319.989 128.628 319.989 129.268V132.964C319.989 133.596 319.901 134.148 319.725 134.62C319.557 135.092 319.281 135.46 318.897 135.724C318.513 135.98 317.993 136.108 317.337 136.108ZM317.337 135.04C317.697 135.04 317.969 134.968 318.153 134.824C318.337 134.672 318.461 134.464 318.525 134.2C318.589 133.928 318.621 133.612 318.621 133.252V128.992C318.621 128.632 318.589 128.324 318.525 128.068C318.461 127.804 318.337 127.604 318.153 127.468C317.969 127.324 317.697 127.252 317.337 127.252C316.977 127.252 316.701 127.324 316.509 127.468C316.325 127.604 316.201 127.804 316.137 128.068C316.073 128.324 316.041 128.632 316.041 128.992V133.252C316.041 133.612 316.073 133.928 316.137 134.2C316.201 134.464 316.325 134.672 316.509 134.824C316.701 134.968 316.977 135.04 317.337 135.04ZM323.722 136V126.28H324.646L327.406 132.736V126.28H328.534V136H327.67L324.874 129.364V136H323.722ZM334.153 136L331.981 126.28H333.253L334.789 133.444L336.253 126.28H337.489L335.341 136H334.153ZM340.92 136V126.28H344.688V127.288H342.276V130.504H344.232V131.464H342.276V135.028H344.712V136H340.92ZM348.207 136V126.28H350.163C350.811 126.28 351.347 126.368 351.771 126.544C352.195 126.712 352.507 126.988 352.707 127.372C352.915 127.748 353.019 128.244 353.019 128.86C353.019 129.236 352.979 129.58 352.899 129.892C352.819 130.196 352.691 130.456 352.515 130.672C352.339 130.88 352.107 131.032 351.819 131.128L353.199 136H351.891L350.619 131.44H349.563V136H348.207ZM349.563 130.468H350.079C350.463 130.468 350.775 130.42 351.015 130.324C351.255 130.228 351.431 130.064 351.543 129.832C351.655 129.6 351.711 129.276 351.711 128.86C351.711 128.292 351.607 127.884 351.399 127.636C351.191 127.38 350.779 127.252 350.163 127.252H349.563V130.468ZM359.098 136.108C358.538 136.108 358.07 135.988 357.694 135.748C357.326 135.508 357.046 135.176 356.854 134.752C356.662 134.328 356.55 133.836 356.518 133.276L357.718 132.952C357.742 133.296 357.794 133.628 357.874 133.948C357.962 134.268 358.102 134.532 358.294 134.74C358.486 134.94 358.754 135.04 359.098 135.04C359.45 135.04 359.714 134.944 359.89 134.752C360.074 134.552 360.166 134.268 360.166 133.9C360.166 133.46 360.066 133.108 359.866 132.844C359.666 132.572 359.414 132.3 359.11 132.028L357.478 130.588C357.158 130.308 356.922 130.004 356.77 129.676C356.618 129.34 356.542 128.928 356.542 128.44C356.542 127.728 356.746 127.176 357.154 126.784C357.562 126.392 358.118 126.196 358.822 126.196C359.206 126.196 359.542 126.248 359.83 126.352C360.126 126.448 360.37 126.6 360.562 126.808C360.762 127.016 360.918 127.28 361.03 127.6C361.15 127.912 361.23 128.28 361.27 128.704L360.118 129.016C360.094 128.696 360.046 128.404 359.974 128.14C359.902 127.868 359.774 127.652 359.59 127.492C359.414 127.324 359.158 127.24 358.822 127.24C358.486 127.24 358.222 127.332 358.03 127.516C357.846 127.692 357.754 127.956 357.754 128.308C357.754 128.604 357.802 128.848 357.898 129.04C358.002 129.232 358.166 129.428 358.39 129.628L360.034 131.068C360.402 131.388 360.726 131.772 361.006 132.22C361.286 132.66 361.426 133.184 361.426 133.792C361.426 134.272 361.326 134.688 361.126 135.04C360.926 135.384 360.65 135.648 360.298 135.832C359.954 136.016 359.554 136.108 359.098 136.108ZM364.315 136L366.379 126.28H367.687L369.763 136H368.479L368.035 133.552H366.055L365.587 136H364.315ZM366.235 132.58H367.855L367.039 128.2L366.235 132.58Z" fill="black"/>
<line x1="-0.000976562" y1="148.503" x2="423" y2="148.503" stroke="#FBBC04" stroke-width="2"/>
<path d="M361.413 13.8425C361.005 13.284 360.223 13.1627 359.663 13.5712L356.406 15.9487C356.112 15.7835 355.801 15.6546 355.478 15.5683C354.494 15.31 353.484 15.4846 352.717 16.0445C351.658 16.8179 351.235 18.1797 351.502 19.5234L323.98 39.6133L321.256 35.8742C321.254 35.8711 321.254 35.8711 321.254 35.8711L319.227 33.0944C318.25 31.691 316.784 30.7513 315.098 30.4427C313.407 30.1386 311.695 30.5077 310.277 31.4898C308.853 32.4765 307.911 33.9387 307.603 35.63C307.529 36.0303 307.496 36.4342 307.498 36.8323C305.65 36.2286 303.548 36.4647 301.83 37.6563C300.412 38.6385 299.463 40.1052 299.152 41.7988C299.081 42.1968 299.046 42.5976 299.048 42.9957C298.775 42.9061 298.489 42.8312 298.2 42.778C296.508 42.4739 294.794 42.8453 293.379 43.8251C291.967 44.8027 291.012 46.274 290.705 47.9653C290.624 48.4091 290.593 48.855 290.601 49.2959C288.845 48.7649 286.885 48.998 285.277 50.1093C283.931 51.0441 283.019 52.4552 282.721 54.0814C282.416 55.7564 282.782 57.4519 283.759 58.8639L285.261 61.0333C285.263 61.0364 285.275 61.0521 285.279 61.0584L285.784 61.7626C285.784 61.7626 285.784 61.7626 285.786 61.7657L285.857 61.863L288.492 65.5186L269.65 79.2721C269.619 79.2951 269.592 79.3243 269.563 79.3504C269.537 79.3742 269.508 79.3948 269.485 79.4218C269.448 79.4633 269.416 79.5057 269.387 79.5458C269.37 79.5681 269.347 79.5896 269.332 79.6151C269.302 79.6661 269.274 79.7201 269.248 79.7774C269.242 79.796 269.232 79.8083 269.224 79.8237L269.214 79.8501C269.213 79.8555 269.21 79.8578 269.209 79.8632L265.441 89.3568C265.437 89.3645 265.436 89.3699 265.434 89.3808C265.416 89.4226 265.407 89.4683 265.397 89.5141C265.385 89.5512 265.374 89.5884 265.371 89.6242C265.363 89.6591 265.362 89.6979 265.359 89.7337C265.357 89.7834 265.352 89.83 265.356 89.8751C265.358 89.8837 265.354 89.8914 265.355 89.9C265.357 89.928 265.366 89.9546 265.367 89.9826C265.375 90.0254 265.381 90.0737 265.394 90.1174C265.402 90.1548 265.415 90.1931 265.429 90.2313C265.442 90.2696 265.455 90.3078 265.472 90.3438C265.489 90.3798 265.511 90.4166 265.531 90.4502C265.553 90.4871 265.572 90.5207 265.595 90.5521C265.618 90.5835 265.644 90.6126 265.67 90.6416C265.699 90.6739 265.725 90.7029 265.756 90.7329C265.785 90.7596 265.818 90.7841 265.85 90.8086C265.882 90.8331 265.912 90.8545 265.948 90.8767C265.986 90.902 266.027 90.9196 266.068 90.9426C266.095 90.9523 266.117 90.9696 266.143 90.9793C266.151 90.9833 266.162 90.985 266.175 90.9898C266.194 90.9954 266.212 91.0011 266.225 91.0059C266.289 91.0269 266.351 91.0393 266.411 91.0486C266.422 91.0503 266.432 91.052 266.443 91.0536C266.519 91.0654 266.592 91.0655 266.667 91.0633C266.676 91.0619 266.681 91.0627 266.687 91.0636L276.919 90.3657C276.987 90.3595 277.05 90.3471 277.113 90.3346C277.122 90.3332 277.134 90.3294 277.142 90.328C277.206 90.3101 277.268 90.289 277.331 90.2626C277.345 90.2565 277.36 90.2505 277.373 90.2413C277.442 90.2103 277.509 90.1706 277.572 90.1247C277.575 90.1224 277.578 90.1201 277.582 90.1178L296.354 76.4148L297.193 77.5771L303.995 87.2655C305.252 89.0798 307.291 90.4532 309.49 91.0502C309.342 91.4418 309.233 91.8534 309.169 92.2803C308.931 93.8488 309.32 95.4116 310.26 96.6871C311.945 98.9683 314.982 99.6896 317.477 98.5657L332.597 119.279C333.005 119.838 333.788 119.959 334.344 119.553L360.42 100.519C360.979 100.11 361.102 99.328 360.695 98.7695L345.501 77.9554C347.56 75.9095 347.869 72.6103 346.097 70.2153C344.924 68.6283 343.096 67.7939 341.25 67.8138L341.78 63.5415C342.063 62.0023 344.152 50.0029 341.427 45.5431C341.411 45.5157 341.391 45.4874 341.37 45.4592L340.463 44.2168L359.421 30.3783C359.715 30.5435 360.026 30.6724 360.349 30.7587C361.336 31.0147 362.343 30.8424 363.11 30.2825L363.113 30.2802C364.173 29.5068 364.596 28.145 364.326 26.7982L367.586 24.4183C367.853 24.2232 368.033 23.9284 368.084 23.6024C368.139 23.2742 368.058 22.9389 367.861 22.6691L361.413 13.8425ZM274.485 88.0211L268.5 88.4316L270.715 82.8568L274.485 88.0211ZM291.541 69.742L276.431 80.7715C275.872 81.18 275.749 81.9623 276.156 82.5207C276.564 83.0792 277.346 83.2005 277.906 82.792L293.003 71.7717L294.888 74.3873L277.11 87.3652L272.137 80.5537L289.957 67.546L291.541 69.742ZM357.933 99.2372L333.882 116.793L319.57 97.1873L343.522 79.4961L357.933 99.2372ZM343.355 76.5068L317.081 95.9166L317.065 95.928C315.543 97.0388 313.393 96.7137 312.276 95.1966C311.729 94.4608 311.507 93.5554 311.644 92.6473C311.783 91.7424 312.263 90.9403 313.003 90.3956L339.292 70.9744C340.817 69.8613 342.964 70.1887 344.081 71.7058C345.206 73.2269 344.881 75.3829 343.355 76.5068ZM339.313 46.8932C341.185 50.0576 339.949 59.674 339.311 63.131C339.308 63.1527 339.304 63.1798 339.3 63.2016L338.648 68.4483C338.364 68.5934 338.085 68.7587 337.817 68.9538L311.518 88.3819C311.333 88.5173 311.163 88.6607 310.999 88.8134C309.062 88.5352 307.129 87.387 306.052 85.8315L299.233 76.1265L287.889 60.3945L287.836 60.3223L287.318 59.5992C287.318 59.5992 287.315 59.5961 287.313 59.593L285.818 57.433C285.224 56.573 284.999 55.5447 285.184 54.5299C285.361 53.5586 285.893 52.7229 286.699 52.1688C288.391 51.001 290.742 51.463 291.944 53.202C291.951 53.2114 291.958 53.2208 291.965 53.2302L293.862 55.8226L293.876 55.8414C293.876 55.8414 293.876 55.8414 293.878 55.8446L293.963 55.9607C294.37 56.5191 295.153 56.6405 295.712 56.232C296.272 55.8235 296.395 55.0412 295.987 54.4827L295.893 54.3541L295.327 53.5651C295.325 53.562 295.323 53.5588 295.32 53.5557L293.801 51.3558C293.205 50.4926 292.977 49.4472 293.167 48.4138C293.357 47.3805 293.944 46.4809 294.803 45.8824C295.666 45.2816 296.715 45.0546 297.748 45.2427C298.782 45.4308 299.68 46.0068 300.276 46.87C300.283 46.8794 300.29 46.8888 300.297 46.8983L302.313 49.6538L302.323 49.6749C302.323 49.6749 302.327 49.6726 302.329 49.6758L302.336 49.6852C302.356 49.7134 302.378 49.7362 302.402 49.7622C302.432 49.7975 302.465 49.836 302.499 49.8691C302.53 49.899 302.566 49.9212 302.6 49.9488C302.63 49.9702 302.66 49.997 302.693 50.016C302.736 50.0422 302.786 50.0638 302.833 50.0822C302.861 50.095 302.881 50.1092 302.908 50.1189C302.966 50.139 303.025 50.1537 303.081 50.1653C303.103 50.1687 303.119 50.1766 303.14 50.18C303.205 50.1901 303.275 50.1925 303.342 50.1917C303.352 50.1934 303.366 50.1982 303.377 50.1945C303.453 50.1923 303.527 50.1815 303.599 50.1676C303.607 50.1661 303.613 50.167 303.616 50.1647C303.783 50.1294 303.939 50.0589 304.08 49.9556C304.083 49.9534 304.083 49.9534 304.083 49.9534C304.558 49.6068 304.714 48.9882 304.498 48.4678C304.494 48.4561 304.496 48.4452 304.486 48.4327C304.464 48.3819 304.43 48.3294 304.399 48.28C304.386 48.2558 304.378 48.2378 304.362 48.2158L304.357 48.2095C304.357 48.2095 304.357 48.2095 304.355 48.2064L304.337 48.1813L303.778 47.3963C303.776 47.3932 303.774 47.39 303.771 47.3869L302.252 45.187C301.653 44.3261 301.428 43.2784 301.618 42.245C301.808 41.2117 302.392 40.309 303.249 39.7127C305.037 38.4792 307.495 38.9215 308.729 40.7044C308.734 40.7106 308.741 40.72 308.747 40.7295L310.774 43.5061C310.774 43.5061 310.777 43.5093 310.779 43.5124L310.783 43.5187C310.793 43.5312 310.807 43.5446 310.822 43.558C310.861 43.6114 310.901 43.6593 310.947 43.7026C310.969 43.7199 310.994 43.735 311.017 43.7524C311.056 43.7863 311.101 43.821 311.144 43.8472C311.177 43.8663 311.211 43.8799 311.244 43.899C311.284 43.9134 311.321 43.9388 311.361 43.9532C311.406 43.9685 311.449 43.9753 311.495 43.9852C311.527 43.9956 311.559 44.0061 311.591 44.0112C311.645 44.0196 311.701 44.0226 311.754 44.0225C311.778 44.0235 311.806 44.0278 311.831 44.0288C311.892 44.0272 311.955 44.0148 312.015 44.0046C312.032 44.0017 312.052 44.0019 312.069 43.999C312.138 43.982 312.203 43.9587 312.269 43.9299C312.281 43.9261 312.289 43.9247 312.301 43.9209C312.37 43.8899 312.437 43.8503 312.504 43.8021C312.507 43.7998 312.515 43.7983 312.518 43.796C312.522 43.7937 312.522 43.7937 312.522 43.7937C312.525 43.7914 312.528 43.7891 312.531 43.7868C313.012 43.4357 313.168 42.8117 312.945 42.2873C312.94 42.281 312.941 42.2756 312.94 42.267C312.91 42.2068 312.874 42.1512 312.838 42.0955C312.83 42.0775 312.824 42.0627 312.813 42.047L312.81 42.0439C312.808 42.0407 312.808 42.0407 312.806 42.0376L312.774 41.9937L312.229 41.2275C312.227 41.2244 312.224 41.2212 312.222 41.2181L310.7 39.0205C310.104 38.1573 309.878 37.1096 310.069 36.0763C310.259 35.0429 310.834 34.147 311.7 33.5439C312.565 32.9463 313.613 32.7193 314.647 32.9074C315.681 33.0955 316.578 33.6715 317.175 34.5347C317.181 34.5441 317.188 34.5535 317.195 34.563L319.229 37.349L329.126 50.9342C329.128 50.9373 329.131 50.9404 329.131 50.9404C329.133 50.9436 329.135 50.9467 329.135 50.9467L333.826 57.3863C334.234 57.9448 335.017 58.0661 335.576 57.6576C336.136 57.2491 336.259 56.4668 335.853 55.9115L331.893 50.4728L338.439 45.6947L339.313 46.8932ZM337.985 42.9283C337.982 42.9306 337.979 42.9329 337.976 42.9352C337.973 42.9375 337.97 42.9398 337.967 42.9421L330.418 48.4522L328.52 45.8458L353.414 27.6745C353.974 27.266 354.096 26.4837 353.689 25.9252C353.281 25.3668 352.499 25.2454 351.939 25.6539L327.048 43.823L325.452 41.6361L352.657 21.778L357.629 28.5895L337.985 42.9283ZM361.544 26.5728C361.604 26.6544 361.657 26.7406 361.703 26.8228C361.706 26.8399 361.717 26.8556 361.725 26.8736C362.014 27.4609 361.937 28.0416 361.638 28.2596L362.376 29.2699L361.635 28.2619C361.421 28.418 361.141 28.3773 360.988 28.3397C360.641 28.2469 360.302 27.9995 360.054 27.6606L354.285 19.7573C354.216 19.6632 354.161 19.5739 354.115 19.4777C353.81 18.8823 353.887 18.2877 354.192 18.0651C354.406 17.909 354.688 17.9528 354.839 17.9873C355.087 18.0563 355.328 18.2023 355.542 18.4023C355.553 18.418 355.566 18.4283 355.58 18.4417C355.65 18.5109 355.713 18.5848 355.773 18.6664L361.544 26.5728ZM363.171 24.549L358.199 17.7375L360.126 16.3307L365.098 23.1422L363.171 24.549Z" fill="black"/>
</svg>
