<svg width="252" height="324" viewBox="0 0 252 324" fill="none" xmlns="http://www.w3.org/2000/svg">
<mask id="mask0_1093_3182" style="mask-type:luminance" maskUnits="userSpaceOnUse" x="0" y="0" width="252" height="324">
<path d="M0 0H252V324H0V0Z" fill="white"/>
</mask>
<g mask="url(#mask0_1093_3182)">
<mask id="mask1_1093_3182" style="mask-type:luminance" maskUnits="userSpaceOnUse" x="0" y="0" width="252" height="324">
<path d="M251.692 0V324L125.786 294.794L0 324L0.167801 236.245L0.391536 42.3218L0.44747 0H251.692Z" fill="white"/>
</mask>
<g mask="url(#mask1_1093_3182)">
<path d="M0 0H251.45V324H0V0Z" fill="#222222"/>
</g>
</g>
<mask id="mask2_1093_3182" style="mask-type:luminance" maskUnits="userSpaceOnUse" x="15" y="95" width="221" height="141">
<path d="M15.9756 95.2295H235.556V235.989H15.9756V95.2295Z" fill="white"/>
</mask>
<g mask="url(#mask2_1093_3182)">
<path d="M235.78 121.896C235.78 120.76 234.775 119.842 233.533 119.842H226.304C226.053 119.338 225.739 118.866 225.362 118.439C224.21 117.144 222.564 116.398 220.861 116.398C218.509 116.398 216.458 117.795 215.425 119.836H154.341L154.348 112.239C154.348 112.233 154.348 112.233 154.348 112.233V106.589C154.417 103.782 153.287 101.116 151.173 99.0755C149.044 97.0346 146.177 95.8675 143.085 95.7973C139.98 95.7272 137.07 96.754 134.837 98.6992C134.307 99.1585 133.833 99.6623 133.414 100.192C131.376 97.6023 128.083 95.8802 124.336 95.7973C121.244 95.7272 118.321 96.754 116.081 98.6992C115.557 99.1585 115.083 99.6559 114.664 100.185C114.364 99.8026 114.029 99.4263 113.666 99.0755C111.538 97.0346 108.663 95.8675 105.579 95.7973C102.502 95.7272 99.5641 96.754 97.3312 98.6992C96.7451 99.2095 96.2287 99.7707 95.7751 100.364C93.7934 97.9594 90.7092 96.3713 87.2063 96.2884C84.2686 96.2246 81.4565 97.2132 79.3073 99.0819C77.0953 101.008 75.8323 103.61 75.7556 106.429L75.6369 110.76C75.6369 110.766 75.6369 110.798 75.6369 110.811L75.623 112.233C75.623 112.233 75.623 112.233 75.623 112.239V112.437L75.5741 119.836H33.7556C33.6858 119.836 33.616 119.848 33.5462 119.855C33.4834 119.861 33.4206 119.861 33.3578 119.874C33.2601 119.893 33.1694 119.918 33.0857 119.944C33.0368 119.957 32.981 119.963 32.9322 119.982C32.8345 120.02 32.7368 120.065 32.6391 120.116C32.6112 120.135 32.5833 120.142 32.5554 120.154L32.5135 120.18C32.5065 120.186 32.4995 120.186 32.4926 120.193L17.0016 129.134C16.9877 129.141 16.9807 129.147 16.9667 129.16C16.897 129.198 16.8342 129.249 16.7714 129.3C16.7155 129.339 16.6597 129.377 16.6178 129.421C16.569 129.46 16.5271 129.511 16.4853 129.555C16.4294 129.619 16.3736 129.677 16.3317 129.74C16.3248 129.753 16.3108 129.759 16.3038 129.772C16.2759 129.811 16.262 129.855 16.2341 129.893C16.1992 129.957 16.1573 130.027 16.1294 130.098C16.1015 130.155 16.0805 130.219 16.0596 130.282C16.0387 130.346 16.0177 130.41 16.0038 130.474C15.9898 130.538 15.9828 130.608 15.9759 130.672C15.9689 130.742 15.9619 130.805 15.9619 130.869C15.9619 130.933 15.9689 130.997 15.9759 131.061C15.9828 131.131 15.9898 131.195 16.0038 131.265C16.0177 131.328 16.0387 131.392 16.0596 131.456C16.0805 131.52 16.1015 131.577 16.1294 131.641C16.1573 131.711 16.1992 131.775 16.2341 131.845C16.262 131.883 16.2759 131.928 16.3038 131.966C16.3108 131.979 16.3248 131.992 16.3387 132.011C16.3597 132.036 16.3806 132.062 16.3945 132.081C16.4643 132.17 16.5411 132.247 16.6178 132.317C16.6318 132.33 16.6457 132.343 16.6597 132.355C16.7574 132.445 16.8621 132.515 16.9737 132.585C16.9877 132.591 16.9946 132.598 17.0016 132.604L32.5554 141.584C32.66 141.641 32.7647 141.686 32.8694 141.731C32.8833 141.737 32.9043 141.744 32.9182 141.75C33.0299 141.788 33.1415 141.82 33.2601 141.846C33.288 141.852 33.316 141.858 33.3439 141.858C33.4764 141.884 33.616 141.897 33.7556 141.897C33.7625 141.897 33.7695 141.897 33.7765 141.897H75.4415L75.4276 144.25L75.0368 163.683C74.9391 167.306 76.4394 171.101 78.9933 174.022C78.3653 174.398 77.7722 174.838 77.2279 175.342C75.2252 177.192 74.1367 179.641 74.1506 182.243C74.1785 186.899 77.814 190.796 82.6148 191.721V233.827C82.6148 234.962 83.6196 235.881 84.8547 235.881H142.729C143.972 235.881 144.976 234.962 144.976 233.827V191.516C150.119 190.796 154.055 186.72 154.02 181.828C153.999 178.588 152.233 175.712 149.54 173.952L154.822 168.798C156.86 167.032 172.567 153.141 173.335 144.588C173.342 144.537 173.342 144.48 173.342 144.422V141.897H215.418C215.669 142.4 215.983 142.872 216.36 143.3C217.519 144.594 219.158 145.341 220.861 145.341H220.868C223.22 145.341 225.271 143.944 226.304 141.897H233.54C234.133 141.897 234.705 141.68 235.124 141.297C235.549 140.914 235.787 140.391 235.787 139.843L235.78 121.896ZM31.5087 136.118L22.4095 130.869L31.5087 125.62V136.118ZM75.5253 128.388H41.9895C40.7474 128.388 39.7426 129.307 39.7426 130.442C39.7426 131.577 40.7474 132.496 41.9895 132.496H75.4974L75.4625 137.789H36.0024V123.943H75.5532L75.5253 128.388ZM140.483 231.774H87.1016V191.918L140.483 191.644V231.774ZM143.399 187.517L84.8408 187.824H84.8059C81.4286 187.824 78.6584 185.311 78.6444 182.217C78.6304 180.712 79.2654 179.296 80.4238 178.225C81.5821 177.16 83.1242 176.56 84.771 176.554L143.364 176.248C146.749 176.248 149.512 178.761 149.526 181.854C149.547 184.96 146.798 187.505 143.399 187.517ZM168.848 144.333C168.213 150.341 156.26 161.898 151.682 165.865C151.654 165.89 151.619 165.922 151.591 165.948L145.102 172.274C144.537 172.191 143.958 172.14 143.364 172.14L84.7501 172.447C84.3384 172.447 83.9406 172.472 83.5429 172.517C81.0308 170.272 79.4469 166.879 79.5306 163.773L79.9144 144.301L80.1167 112.456V112.31L80.1307 110.849C80.1307 110.849 80.1307 110.843 80.1307 110.836L80.2493 106.525C80.2982 104.809 81.0588 103.228 82.3985 102.06C83.6824 100.944 85.3362 100.351 87.0877 100.396C90.772 100.485 93.6888 103.374 93.5911 106.844C93.5911 106.863 93.5911 106.882 93.5911 106.901L93.598 112.176V112.214C93.598 112.214 93.598 112.214 93.598 112.22V112.456C93.598 113.592 94.6029 114.51 95.8449 114.51C97.087 114.51 98.0918 113.592 98.0918 112.456V112.195L98.1058 110.6C98.1058 110.594 98.1058 110.588 98.1058 110.581L98.2314 106.193C98.2802 104.471 99.0548 102.864 100.422 101.678C101.79 100.491 103.59 99.8664 105.467 99.9047C107.351 99.9429 109.11 100.657 110.408 101.907C111.706 103.157 112.397 104.79 112.348 106.512C112.348 106.531 112.348 106.55 112.348 106.57L112.355 112.176L112.348 112.214C112.348 112.214 112.355 112.214 112.355 112.22V112.239C112.355 112.297 112.362 112.348 112.369 112.405C112.376 112.482 112.383 112.565 112.397 112.641C112.41 112.711 112.438 112.775 112.459 112.845C112.48 112.903 112.494 112.967 112.522 113.024C112.557 113.1 112.606 113.177 112.655 113.247C112.683 113.292 112.697 113.33 112.724 113.368C112.787 113.451 112.857 113.528 112.927 113.598C112.955 113.623 112.969 113.649 112.997 113.674C113.08 113.751 113.178 113.821 113.276 113.885C113.29 113.898 113.304 113.917 113.325 113.923C113.436 113.993 113.555 114.051 113.673 114.102C113.687 114.108 113.694 114.115 113.701 114.115C113.98 114.229 114.281 114.287 114.595 114.287C114.602 114.287 114.602 114.287 114.602 114.287C115.655 114.287 116.534 113.617 116.772 112.718C116.779 112.699 116.793 112.686 116.793 112.66C116.814 112.571 116.82 112.469 116.827 112.373C116.834 112.329 116.841 112.297 116.841 112.252V112.239C116.841 112.239 116.841 112.239 116.841 112.233V112.182L116.862 110.6C116.862 110.594 116.862 110.588 116.862 110.581L116.988 106.193C117.03 104.471 117.811 102.864 119.179 101.678C120.547 100.491 122.347 99.86 124.217 99.8983C128.111 99.994 131.202 102.96 131.104 106.519C131.104 106.531 131.104 106.55 131.104 106.57V112.214C131.104 112.214 131.104 112.22 131.104 112.227V112.239C131.104 112.265 131.111 112.297 131.118 112.329C131.118 112.437 131.125 112.539 131.146 112.641C131.16 112.686 131.181 112.731 131.195 112.775C131.216 112.858 131.244 112.947 131.279 113.024C131.307 113.081 131.342 113.132 131.369 113.19C131.411 113.247 131.439 113.317 131.481 113.375C131.53 113.439 131.586 113.49 131.642 113.547C131.676 113.592 131.711 113.636 131.753 113.674C131.823 113.738 131.9 113.796 131.977 113.847C132.011 113.872 132.046 113.904 132.081 113.93C132.172 113.987 132.277 114.032 132.374 114.076C132.402 114.089 132.43 114.108 132.458 114.121C132.577 114.166 132.695 114.197 132.821 114.223C132.842 114.229 132.856 114.236 132.877 114.242C133.009 114.268 133.149 114.28 133.295 114.28C133.302 114.28 133.316 114.287 133.323 114.287C133.33 114.287 133.33 114.287 133.33 114.287C133.337 114.287 133.344 114.287 133.351 114.287C134.419 114.287 135.305 113.611 135.535 112.699C135.535 112.686 135.542 112.68 135.549 112.667C135.57 112.558 135.577 112.45 135.584 112.342C135.591 112.31 135.598 112.284 135.598 112.252V112.246C135.598 112.239 135.598 112.239 135.598 112.233V112.144L135.619 110.6C135.619 110.594 135.619 110.588 135.619 110.581L135.738 106.193C135.786 104.471 136.568 102.864 137.936 101.678C139.303 100.491 141.083 99.86 142.974 99.8983C144.858 99.9429 146.616 100.657 147.914 101.907C149.212 103.157 149.903 104.79 149.854 106.512C149.854 106.531 149.854 106.55 149.854 106.57V112.233L149.826 139.83C149.826 139.837 149.826 139.843 149.826 139.843C149.826 139.849 149.826 139.856 149.826 139.856L149.812 152.937C149.812 154.072 150.817 154.99 152.059 154.99C153.301 154.99 154.306 154.072 154.306 152.943L154.32 141.897H168.848V144.333ZM171.116 137.789C171.109 137.789 171.102 137.789 171.095 137.789C171.088 137.789 171.081 137.789 171.074 137.789H154.32L154.327 132.496H209.578C210.82 132.496 211.825 131.577 211.825 130.442C211.825 129.307 210.82 128.388 209.578 128.388H154.334V123.943H214.713V137.789H171.116ZM222.515 138.905C222.515 139.071 222.501 139.237 222.48 139.39C222.466 139.416 222.466 139.447 222.459 139.479C222.257 140.538 221.531 141.233 220.868 141.233V143.287L220.861 141.233C220.387 141.233 220.024 140.908 219.842 140.71C219.438 140.251 219.207 139.594 219.207 138.905V122.839C219.207 122.648 219.221 122.476 219.256 122.304C219.444 121.22 220.184 120.505 220.861 120.505C221.336 120.505 221.698 120.837 221.88 121.028C222.166 121.36 222.361 121.787 222.459 122.259C222.459 122.291 222.466 122.317 222.473 122.348C222.501 122.508 222.515 122.667 222.515 122.833V138.905ZM227.009 137.796V123.949H231.286V137.796H227.009Z" fill="white"/>
</g>
<mask id="mask3_1093_3182" style="mask-type:luminance" maskUnits="userSpaceOnUse" x="117" y="53" width="9" height="18">
<path d="M117.157 53.3418H125.935V70.9697H117.157V53.3418Z" fill="white"/>
</mask>
<g mask="url(#mask3_1093_3182)">
<path d="M121.435 69.6159C122.961 69.6159 124.195 68.5956 124.195 67.3345V55.6935C124.195 54.4324 122.961 53.4121 121.435 53.4121C119.917 53.4121 118.683 54.4324 118.683 55.6935V67.3345C118.683 68.5956 119.917 69.6159 121.435 69.6159Z" fill="white"/>
</g>
<path d="M82.085 76.8312C82.5682 77.5862 83.4526 78 84.3698 78C84.812 78 85.2706 77.9056 85.68 77.6878C86.9411 77.0417 87.3751 75.6115 86.6463 74.5008L79.9232 64.1702C79.1943 63.0522 77.5811 62.6674 76.32 63.3136C75.0589 63.9597 74.6249 65.3898 75.3537 66.5078L82.085 76.8312Z" fill="white"/>
<path d="M44.3221 94.1032L56.0259 99.7065C56.4453 99.9044 56.8977 100 57.3501 100C58.263 100 59.1513 99.611 59.6448 98.9012C60.3768 97.8501 59.9408 96.5056 58.6742 95.905L46.9705 90.2948C45.7039 89.6874 44.0836 90.0491 43.3516 91.1001C42.6278 92.1512 43.0555 93.4957 44.3221 94.1032Z" fill="white"/>
<path d="M184.81 100C185.281 100 185.759 99.9044 186.204 99.7065L198.603 94.1032C199.944 93.4957 200.397 92.1512 199.622 91.1001C198.855 90.0491 197.14 89.6874 195.799 90.2948L183.4 95.905C182.059 96.5056 181.606 97.8501 182.372 98.9012C182.895 99.611 183.835 100 184.81 100Z" fill="white"/>
<path d="M156.423 77.6879C156.876 77.9056 157.363 78 157.851 78C158.836 78 159.803 77.5862 160.326 76.8313L167.617 66.502C168.406 65.3914 167.936 63.9614 166.57 63.3154C165.204 62.6693 163.466 63.0468 162.676 64.1647L155.385 74.494C154.596 75.6118 155.057 77.0418 156.423 77.6879Z" fill="white"/>
</svg>
