<svg width="42" height="42" viewBox="0 0 42 42" fill="none" xmlns="http://www.w3.org/2000/svg">
<path d="M34.5111 39L23.3111 28.5C22.4222 29.1667 21.4 29.6944 20.2444 30.0833C19.0889 30.4722 17.8593 30.6667 16.5556 30.6667C13.3259 30.6667 10.5929 29.6178 8.35645 27.52C6.12 25.4222 5.00119 22.86 5 19.8333C4.99882 16.8067 6.11763 14.2444 8.35645 12.1467C10.5953 10.0489 13.3283 9 16.5556 9C19.7828 9 22.5164 10.0489 24.7564 12.1467C26.9964 14.2444 28.1147 16.8067 28.1111 19.8333C28.1111 21.0556 27.9037 22.2083 27.4889 23.2917C27.0741 24.375 26.5111 25.3333 25.8 26.1667L37 36.6667L34.5111 39ZM16.5556 27.3333C18.7778 27.3333 20.667 26.6044 22.2231 25.1467C23.7793 23.6889 24.5567 21.9178 24.5556 19.8333C24.5544 17.7489 23.7769 15.9783 22.2231 14.5217C20.6693 13.065 18.7801 12.3356 16.5556 12.3333C14.331 12.3311 12.4424 13.0606 10.8898 14.5217C9.33719 15.9828 8.55911 17.7533 8.55556 19.8333C8.552 21.9133 9.33008 23.6844 10.8898 25.1467C12.4495 26.6089 14.3381 27.3378 16.5556 27.3333Z" fill="white"/>
</svg>
