<svg width="100" height="100" viewBox="0 0 100 100" fill="none" xmlns="http://www.w3.org/2000/svg">
<circle cx="50" cy="50" r="50" fill="#FFF500"/>
<path d="M40.032 81V29.16H52.896C56.0107 29.16 58.4853 29.736 60.32 30.888C62.1973 31.9973 63.5627 33.6187 64.416 35.752C65.2693 37.8853 65.696 40.4667 65.696 43.496C65.696 46.2267 65.2053 48.5947 64.224 50.6C63.2853 52.6053 61.8773 54.1627 60 55.272C58.1227 56.3387 55.776 56.872 52.96 56.872H47.264V81H40.032ZM47.264 51.688H50.592C52.6827 51.688 54.3253 51.4533 55.52 50.984C56.7147 50.5147 57.568 49.704 58.08 48.552C58.592 47.3573 58.848 45.6933 58.848 43.56C58.848 41.0853 58.656 39.1867 58.272 37.864C57.9307 36.5413 57.184 35.624 56.032 35.112C54.88 34.6 53.088 34.344 50.656 34.344H47.264V51.688Z" fill="black"/>
</svg>
