<svg width="29" height="31" viewBox="0 0 29 31" fill="none" xmlns="http://www.w3.org/2000/svg">
<path d="M9.50365 14.0051H8.86861C8.00201 13.9664 7.13822 14.1482 6.33084 14.5392C5.52347 14.9303 4.78974 15.5222 4.17518 16.2783L4 16.5309V24H6.9781V19.7603L7.37956 19.201L7.56204 18.9394C8.51235 17.7329 9.69546 16.8451 11 16.3595C10.3471 15.745 9.83202 14.9346 9.50365 14.0051Z" fill="black"/>
<path d="M24.8489 16.2701C24.2432 15.5168 23.52 14.9269 22.7243 14.5373C21.9285 14.1477 21.0772 13.9665 20.223 14.0051C19.9611 14.0068 19.6994 14.0248 19.4388 14.059C19.1092 14.9279 18.6154 15.6836 18 16.2611C19.3728 16.7352 20.6163 17.6673 21.5971 18.9576L21.777 19.2093L22.1655 19.7665V24H25V16.5218L24.8489 16.2701Z" fill="black"/>
<path d="M8.26839 10.9707H8.51599C8.40095 10.0635 8.57428 9.14516 9.01506 8.32647C9.45583 7.50779 10.1452 6.82376 11 6.35697C10.6901 5.92226 10.2627 5.5689 9.75944 5.3315C9.2562 5.0941 8.69446 4.98079 8.1292 5.00266C7.56395 5.02454 7.01458 5.18085 6.53488 5.45629C6.05517 5.73174 5.66159 6.11687 5.39266 6.57397C5.12373 7.03108 4.98869 7.54449 5.00074 8.06393C5.0128 8.58336 5.17154 9.09102 5.46143 9.53719C5.75132 9.98336 6.16242 10.3527 6.65446 10.6092C7.14651 10.8656 7.70264 11.0003 8.26839 11V10.9707Z" fill="black"/>
<path d="M20.3362 10.4568C20.3451 10.6255 20.3451 10.7946 20.3362 10.9633C20.4876 10.9859 20.6406 10.9981 20.7939 11H20.9439C21.5005 10.9724 22.0399 10.8112 22.5096 10.5322C22.9793 10.2532 23.3634 9.86576 23.6243 9.40771C23.8853 8.94966 24.0143 8.43657 23.9987 7.9184C23.9832 7.40023 23.8237 6.89463 23.5356 6.45082C23.2476 6.00702 22.841 5.64014 22.3552 5.38589C21.8695 5.13165 21.3213 4.99871 20.7639 5.00001C20.2065 5.00131 19.659 5.13682 19.1746 5.39333C18.6903 5.64985 18.2856 6.01863 18 6.46378C18.7143 6.89753 19.3017 7.48942 19.7095 8.18634C20.1172 8.88327 20.3325 9.66342 20.3362 10.4568Z" fill="black"/>
<path d="M14.5 15C16.433 15 18 13.433 18 11.5C18 9.567 16.433 8 14.5 8C12.567 8 11 9.567 11 11.5C11 13.433 12.567 15 14.5 15Z" fill="black"/>
<path d="M14.5133 19.0066C13.3576 18.9682 12.2046 19.1246 11.1233 19.4664C10.0421 19.8082 9.05496 20.3284 8.22124 20.9957L8 21.202V25.8653C8.00345 26.0172 8.04282 26.167 8.11585 26.3062C8.18889 26.4455 8.29415 26.5714 8.42564 26.6767C8.55713 26.7821 8.71226 26.8648 8.88218 26.9203C9.05209 26.9757 9.23346 27.0027 9.41593 26.9998H19.5841C19.7665 27.0027 19.9479 26.9757 20.1178 26.9203C20.2877 26.8648 20.4429 26.7821 20.5744 26.6767C20.7058 26.5714 20.8111 26.4455 20.8841 26.3062C20.9572 26.167 20.9965 26.0172 21 25.8653V21.2167L20.7876 20.9957C19.9596 20.326 18.976 19.8041 17.897 19.4621C16.8181 19.12 15.6667 18.965 14.5133 19.0066Z" fill="black"/>
</svg>
